<svg width="132" height="28" viewBox="0 0 132 28" fill="none" xmlns="http://www.w3.org/2000/svg">
<g clip-path="url(#clip0_22_106)">
<path d="M24.6077 17.4004H20.2841H17.412H16.7026L12.379 21.6911L8.05546 17.4004H7.34605H4.47396H0.150391V21.6911H6.26441L9.32172 24.7256L12.379 27.7601L15.4364 24.7256L18.4931 21.6911H24.6077V17.4004Z" fill="#FF6336"/>
<path d="M24.6077 8.81641H0.150391V13.1077H24.6077V8.81641Z" fill="#FFC500"/>
<path d="M24.6077 0.234375H0.150391V4.52568H24.6077V0.234375Z" fill="#A4A14A"/>
<path d="M34.3313 0.234375H38.2208V21.292H34.3313V0.234375Z" fill="black"/>
<path d="M44.2749 20.6922C43.0466 20.0193 42.0743 19.0983 41.3577 17.9281C40.64 16.7585 40.282 15.4711 40.282 14.0676C40.282 12.664 40.64 11.3772 41.3577 10.207C42.0743 9.03736 43.0466 8.11582 44.2749 7.44293C45.5019 6.77004 46.8336 6.43359 48.2678 6.43359C49.7015 6.43359 51.0324 6.77004 52.2607 7.44293C53.4877 8.11582 54.4602 9.03678 55.1778 10.207C55.8944 11.3766 56.2536 12.664 56.2536 14.0676C56.2536 15.4711 55.895 16.7579 55.1778 17.9281C54.4602 19.0977 53.4877 20.0193 52.2607 20.6922C51.0324 21.3651 49.7015 21.7015 48.2678 21.7015C46.8336 21.7015 45.5025 21.3651 44.2749 20.6922ZM50.3159 17.6217C50.9345 17.2806 51.4302 16.798 51.8036 16.174C52.1763 15.55 52.3639 14.8483 52.3639 14.0681C52.3639 13.2886 52.1769 12.5868 51.8036 11.9623C51.4302 11.3383 50.9345 10.8557 50.3159 10.5145C49.6973 10.1734 49.014 10.0025 48.2678 10.0025C47.521 10.0025 46.8389 10.1734 46.2197 10.5145C45.6011 10.8557 45.1048 11.3383 44.7314 11.9623C44.3574 12.5862 44.1716 13.2886 44.1716 14.0681C44.1716 14.8483 44.3574 15.55 44.7314 16.174C45.1043 16.798 45.6005 17.2806 46.2197 17.6217C46.8383 17.9629 47.5204 18.1338 48.2678 18.1338C49.014 18.1332 49.6967 17.9629 50.3159 17.6217Z" fill="black"/>
<path d="M58.3149 0.234375H62.2045V12.7813L67.2725 6.84426H71.8982L66.1819 13.5419L72.3108 21.292H67.3312L62.2045 14.5943V21.292H58.3149V0.234375Z" fill="black"/>
<path d="M75.9805 20.766C74.89 20.142 74.0061 19.2499 73.3288 18.0898C72.6508 16.9302 72.3118 15.5891 72.3118 14.0683C72.3118 12.6842 72.636 11.4068 73.2842 10.2372C73.9325 9.0676 74.8165 8.14134 75.9366 7.45903C77.0563 6.77671 78.2833 6.43555 79.6197 6.43555C80.5624 6.43555 81.422 6.59169 82.1973 6.90339C82.9732 7.21509 83.5675 7.63461 83.98 8.16079V6.84447H87.8697V21.2922H83.98V19.9759C83.371 20.5415 82.7227 20.9699 82.0352 21.2627C81.3472 21.555 80.4633 21.7017 79.3828 21.7017C78.205 21.7023 77.0711 21.39 75.9805 20.766ZM83.067 16.9644C83.7936 16.1848 84.1576 15.2197 84.1576 14.0689C84.1576 12.9188 83.7936 11.9536 83.067 11.1735C82.3404 10.3939 81.3775 10.0039 80.1795 10.0039C78.9809 10.0039 78.0179 10.3945 77.2913 11.1735C76.5647 11.9536 76.2014 12.9188 76.2014 14.0689C76.2014 15.2197 76.5647 16.1848 77.2913 16.9644C78.0179 17.7445 78.9803 18.134 80.1795 18.134C81.3775 18.134 82.3404 17.7445 83.067 16.9644Z" fill="black"/>
<path d="M90.6992 0.234375H94.589V21.292H90.6992V0.234375Z" fill="black"/>
<path d="M97.6246 4.15283C97.1531 3.68499 96.9175 3.11934 96.9175 2.45647C96.9175 1.77415 97.1531 1.19435 97.6246 0.716494C98.0959 0.239224 98.6658 0 99.3337 0C100.021 0 100.605 0.239224 101.087 0.716494C101.567 1.19435 101.809 1.77415 101.809 2.45647C101.809 3.11934 101.568 3.68499 101.087 4.15283C100.605 4.62068 100.021 4.8546 99.3337 4.8546C98.6658 4.85519 98.0959 4.62068 97.6246 4.15283ZM97.4179 6.84381H101.307V21.2915H97.4179V6.84381Z" fill="black"/>
<path d="M103.96 20.2948L104.845 16.6682H105.021C106.297 17.6434 107.604 18.1306 108.94 18.1306C109.49 18.1306 109.937 18.0281 110.281 17.8237C110.625 17.6192 110.797 17.3222 110.797 16.9316C110.797 16.5221 110.594 16.1909 110.192 15.9376C109.789 15.6842 109.038 15.3725 107.939 15.0013C106.819 14.6313 105.95 14.0945 105.331 13.3927C104.713 12.6909 104.402 11.8625 104.402 10.9068C104.402 9.56159 104.908 8.47919 105.92 7.66017C106.931 6.84115 108.213 6.43164 109.765 6.43164C110.551 6.43164 111.248 6.5047 111.858 6.65083C112.466 6.79696 113.046 7.03618 113.596 7.36732L113.744 11.0523H113.537C112.83 10.6039 112.201 10.2681 111.651 10.0436C111.101 9.81967 110.483 9.70712 109.796 9.70712C109.304 9.70712 108.901 9.80494 108.587 9.99938C108.273 10.1944 108.116 10.4484 108.116 10.7601C108.116 11.1696 108.312 11.506 108.705 11.7694C109.097 12.0328 109.835 12.3498 110.915 12.7198C112.152 13.1293 113.09 13.6266 113.729 14.2117C114.368 14.7962 114.687 15.703 114.687 16.9316C114.687 17.9456 114.431 18.8135 113.92 19.5348C113.409 20.2565 112.736 20.7975 111.901 21.1581C111.067 21.5187 110.148 21.699 109.147 21.699C107.123 21.699 105.394 21.2311 103.96 20.2948Z" fill="black"/>
<path d="M120.166 20.6763C118.948 19.9939 117.991 19.063 117.294 17.8834C116.596 16.7037 116.247 15.3927 116.247 13.9497C116.247 12.5462 116.577 11.2735 117.234 10.1333C117.893 8.99258 118.807 8.09107 119.976 7.4282C121.144 6.76533 122.465 6.43359 123.938 6.43359C125.431 6.43359 126.723 6.78006 127.813 7.4718C128.903 8.16414 129.728 9.08509 130.288 10.2358C130.848 11.3866 131.128 12.6245 131.128 13.9503V15.091H119.96C120.196 16.1834 120.701 17.0119 121.477 17.577C122.254 18.1426 123.28 18.4248 124.557 18.4248C126.502 18.4248 128.2 17.7914 129.654 16.524H130.067L129.919 20.1795C129.036 20.6869 128.103 21.0669 127.12 21.3203C126.138 21.5736 125.195 21.7003 124.291 21.7003C122.76 21.6997 121.384 21.3586 120.166 20.6763ZM127.239 12.4578C127.14 11.5804 126.772 10.8928 126.134 10.3961C125.495 9.8994 124.714 9.65016 123.791 9.65016C122.888 9.65016 122.097 9.88938 121.419 10.3666C120.742 10.8445 120.284 11.5416 120.048 12.4578H127.239Z" fill="black"/>
</g>
<defs>
<clipPath id="clip0_22_106">
<rect width="130.977" height="28" fill="white" transform="translate(0.150391)"/>
</clipPath>
</defs>
</svg>
