<svg width="150" height="116" viewBox="0 0 150 116" fill="none" xmlns="http://www.w3.org/2000/svg">
<g clip-path="url(#clip0_26_90)">
<path fill-rule="evenodd" clip-rule="evenodd" d="M42.4801 25.3601C42.744 25.2282 43.0078 25.4921 43.1398 25.7559C43.1398 25.7559 43.5355 27.339 44.0632 27.339C44.0632 27.6029 44.0632 27.8667 43.7994 27.9987C42.8759 28.3944 40.897 28.9221 38.7862 28.9221C32.4537 28.9221 27.9683 24.4367 27.9683 18.3681C27.9683 11.9037 32.7176 7.81396 39.182 7.81396C40.1055 7.81396 41.9524 8.07782 43.1398 8.34167C43.2717 8.47359 43.5355 8.73745 43.5355 9.0013V13.3549C43.5355 13.6187 43.2717 13.8826 43.0078 13.8826H41.8205C41.5567 13.8826 41.4247 13.7506 41.2928 13.4868L40.897 11.7717C40.6332 10.8483 39.8416 10.4525 38.2585 10.4525C33.773 10.4525 32.3218 14.0145 32.3218 17.7084C32.3218 21.9301 34.3007 25.8878 39.3139 25.8878C40.3693 26.0198 41.8205 25.7559 42.4801 25.3601ZM52.5065 26.2836C54.0896 26.2836 55.145 25.0963 55.145 23.909L55.0131 21.5343C55.0131 21.4024 55.0131 21.2704 54.7493 21.2704C51.3192 21.2704 50.1318 22.4578 50.1318 24.1728C49.9999 25.3601 51.0553 26.2836 52.5065 26.2836ZM60.9498 26.5475C60.9498 26.2836 60.6859 26.1517 60.4221 26.1517C60.1582 26.2836 59.8944 26.2836 59.6305 26.2836C58.9709 26.2836 58.839 25.8878 58.839 25.3601V18.3681C58.839 14.2783 56.3324 12.6952 52.6384 12.6952C50.7915 12.6952 48.8126 13.091 47.4933 13.6187C47.2295 13.7506 47.0975 14.0145 47.2295 14.2783L47.6252 16.1253C47.7572 16.5211 48.021 16.5211 48.2849 16.3892C49.2084 15.8615 50.3957 15.5976 51.583 15.5976C53.5619 15.5976 55.0131 16.3892 55.0131 18.1042V18.6319C55.0131 18.8958 54.8812 19.1596 54.7493 19.1596C50.1318 19.1596 46.306 20.6108 46.306 24.8324C46.306 27.2071 48.021 29.0541 50.7915 29.0541C53.2981 29.0541 54.4854 27.9987 55.4089 26.9433H55.5408C55.6727 28.1306 56.3324 29.0541 58.0474 29.0541C58.9709 29.0541 60.554 28.7902 60.8179 28.5264C61.0817 28.3944 61.0817 28.2625 61.0817 27.9987L60.9498 26.5475ZM71.1081 15.7295C69.525 15.7295 68.3377 16.653 68.3377 18.1042V24.1728C68.3377 25.4921 69.2611 26.2836 70.8442 26.2836C73.7466 26.2836 74.802 23.3812 74.802 20.7427C74.6701 18.2361 73.6147 15.7295 71.1081 15.7295ZM70.7123 34.463C70.9762 34.463 71.24 34.1992 71.24 33.9353V33.1438C71.24 32.8799 71.1081 32.6161 70.8442 32.6161L68.9973 32.3522C68.7334 32.2203 68.3377 31.9564 68.3377 31.4287V28.1306C68.4696 28.1306 68.7334 28.1306 68.9973 28.1306C69.3931 28.1306 69.6569 28.2625 70.0527 28.2625C75.8574 28.2625 78.7598 24.7005 78.7598 19.5554C78.7598 15.3338 76.2532 12.4314 72.6912 12.4314C70.3165 12.4314 68.9973 13.6187 67.9419 14.806H67.81L67.5461 13.3549C67.5461 13.091 67.2822 12.6952 66.8865 12.8272L62.0052 13.3549C61.7413 13.3549 61.4775 13.6187 61.4775 13.8826V14.6741C61.4775 14.938 61.6094 15.0699 61.8733 15.2018L63.3245 15.4657C63.8522 15.5976 63.9841 16.1253 63.9841 16.3892V31.8245C63.9841 32.4841 63.7202 32.748 63.3245 32.748L62.1371 33.1438C61.8733 33.2757 61.7413 33.4076 61.7413 33.6715V34.463C61.7413 34.7269 62.0052 34.9907 62.2691 34.9907L70.7123 34.463ZM90.5012 25.7559C90.897 25.7559 91.1609 25.8878 91.1609 26.1517L91.6886 27.7348C91.6886 28.1306 91.6886 28.2625 91.4247 28.3944C90.5012 28.9221 88.7862 29.186 87.5989 29.186C84.5646 29.186 82.4537 27.471 82.4537 24.4367V16.5211C82.4537 16.2572 82.3218 16.1253 82.058 16.1253H79.9472C79.6833 16.1253 79.6833 15.9934 79.6833 15.7295L79.8152 14.0145C79.8152 14.0145 79.9472 13.7506 80.0791 13.7506H81.7941C82.1899 13.7506 82.1899 13.4868 82.1899 13.2229V11.244C82.1899 10.8483 82.3218 10.5844 82.7176 10.4525L85.62 9.529C86.0158 9.39708 86.1477 9.66093 86.1477 10.0567V13.2229C86.1477 13.3549 86.2796 13.6187 86.5435 13.6187H90.3693C90.5012 13.6187 90.6332 13.7506 90.6332 13.8826V15.7295C90.6332 15.7295 90.5012 15.9934 90.3693 15.9934H86.5435C86.2796 15.9934 86.0158 16.1253 86.0158 16.3892V23.5132C86.0158 25.2282 86.9392 26.2836 88.6543 26.2836C89.182 26.1517 89.8416 26.0198 90.5012 25.7559ZM102.111 17.1807C102.111 19.2915 99.9999 19.9512 98.021 19.9512C97.4933 19.9512 97.0975 19.9512 96.8337 19.8192C96.5698 19.8192 96.4379 19.6873 96.4379 19.4235C96.306 17.4446 97.3614 14.806 99.7361 14.806C101.187 14.806 102.111 15.8615 102.111 17.1807ZM104.749 25.2282C105.013 24.9644 105.277 25.2282 105.409 25.4921L105.541 27.0752C105.673 27.339 105.541 27.6029 105.277 27.7348C104.09 28.5264 102.243 28.9221 100.528 28.9221C95.2506 28.9221 92.4801 25.624 92.4801 20.7427C92.4801 16.1253 96.0421 12.6952 100.396 12.6952C103.298 12.6952 106.2 14.2783 106.2 17.3126C106.2 20.8747 102.507 22.1939 99.3403 22.1939C98.9445 22.1939 98.5487 22.1939 98.153 22.1939C97.7572 22.1939 97.4933 22.1939 97.2295 22.1939C96.9656 22.1939 96.8337 22.3258 96.8337 22.5897C97.0975 24.9644 99.4722 26.4155 101.451 26.4155C102.902 26.4155 103.958 25.8878 104.749 25.4921C104.749 25.2282 104.749 25.2282 104.749 25.2282ZM116.623 28.6583C116.886 28.6583 117.15 28.3944 117.15 28.1306V27.339C117.15 27.0752 117.018 26.9433 116.755 26.8113L114.908 26.5475C114.644 26.5475 114.248 26.1517 114.248 25.624V18.7638C114.248 17.1807 115.567 16.2572 117.018 16.2572C117.678 16.2572 118.338 16.3892 118.865 16.5211C119.129 16.653 119.525 16.3892 119.525 16.2572L120.185 13.4868C120.317 13.091 120.185 12.8272 119.921 12.8272C119.525 12.5633 118.997 12.5633 118.602 12.5633C116.623 12.5633 115.303 13.8826 114.116 15.4657H113.984L113.72 13.3549C113.72 12.9591 113.456 12.6952 113.193 12.6952L108.311 13.3549C108.047 13.3549 107.784 13.6187 107.784 13.8826V14.6741C107.784 14.938 107.915 15.0699 108.179 15.2018L109.631 15.4657C110.158 15.5976 110.29 16.1253 110.29 16.3892V25.8878C110.29 26.5475 110.026 26.8113 109.631 26.8113L108.311 27.0752C108.047 27.2071 107.915 27.339 107.915 27.6029V28.3944C107.915 28.6583 108.179 28.9221 108.443 28.9221H116.623V28.6583ZM130.475 28.1306C130.475 28.3944 130.211 28.6583 129.947 28.6583H121.768C121.504 28.6583 121.24 28.3944 121.24 28.1306V27.339C121.24 27.0752 121.372 26.9433 121.636 26.8113L122.955 26.5475C123.351 26.5475 123.615 26.1517 123.615 25.624V16.1253C123.615 15.7295 123.483 15.3338 122.955 15.2018L121.504 14.938C121.24 14.806 121.108 14.6741 121.108 14.4103V13.6187C121.108 13.3549 121.372 13.091 121.636 13.091L126.517 12.4314C126.781 12.4314 127.045 12.6952 127.045 13.091L127.309 15.4657H127.441C128.628 13.8826 130.079 12.5633 131.926 12.5633C132.322 12.5633 132.85 12.5633 133.245 12.8272C133.509 12.8272 133.641 13.091 133.509 13.4868L132.85 16.2572C132.85 16.3892 132.454 16.653 132.19 16.5211C131.662 16.3892 131.003 16.2572 130.343 16.2572C128.892 16.2572 127.572 17.1807 127.572 18.7638V25.624C127.572 26.2836 127.968 26.5475 128.232 26.5475L130.079 26.8113C130.343 26.9433 130.475 27.0752 130.475 27.339V28.1306ZM144.063 23.909C144.063 25.0963 143.14 26.2836 141.425 26.2836C140.105 26.2836 138.918 25.3601 138.918 24.0409C138.918 22.3258 140.105 21.1385 143.536 21.1385C143.799 21.1385 143.799 21.2704 143.799 21.4024L144.063 23.909ZM149.34 26.1517C149.604 26.1517 149.868 26.2836 149.868 26.5475L150.132 28.1306C150.132 28.3944 150.132 28.5264 149.868 28.6583C149.472 28.9221 148.021 29.186 147.098 29.186C145.514 29.186 144.723 28.3944 144.591 27.0752H144.459C143.536 27.9987 142.216 29.186 139.842 29.186C137.071 29.186 135.356 27.339 135.356 24.9644C135.356 20.7427 139.182 19.2915 143.799 19.2915C143.931 19.2915 144.063 19.0277 144.063 18.7638V18.1042C144.063 16.2572 142.612 15.5976 140.633 15.5976C139.446 15.5976 138.127 15.9934 137.335 16.3892C137.071 16.5211 136.807 16.5211 136.675 16.1253L136.28 14.2783C136.148 14.0145 136.28 13.7506 136.543 13.6187C137.863 12.9591 139.842 12.6952 141.689 12.6952C145.383 12.6952 147.889 14.2783 147.889 18.3681V25.3601C147.889 26.0198 148.153 26.2836 148.813 26.2836C148.813 26.2836 149.076 26.2836 149.34 26.1517Z" fill="black"/>
<path fill-rule="evenodd" clip-rule="evenodd" d="M6.0686 17.4447H0.791557C0.659631 17.4447 0.527704 17.3127 0.659631 17.3127C0.527704 17.3127 0.527704 17.1808 0.527704 17.0489L0.659631 16.3892C0.791557 16.1254 0.791557 15.9935 0.791557 15.9935C0.791557 15.8615 0.923483 15.7296 0.923483 15.5977C0.923483 15.3338 1.05541 15.07 1.18734 14.8061C3.29815 7.02249 10.1583 0.953888 10.8179 0.294257C11.2137 0.162331 11.3456 0.162331 11.6095 0.294257C18.8654 6.75864 21.6359 13.223 21.8997 16.785V17.1808C21.8997 17.3127 21.7678 17.5766 21.504 17.5766H16.095C15.9631 17.5766 15.6992 17.5766 15.6992 17.3127C15.1715 15.07 13.1926 13.6188 11.0818 13.6188C8.83905 13.6188 6.99208 15.2019 6.46438 17.3127C6.33245 17.3127 6.33245 17.4447 6.0686 17.4447ZM15.8311 19.5555H21.2401C21.2401 19.5555 21.504 19.5555 21.2401 19.6874C21.372 19.6874 21.372 19.8193 21.372 19.9513L21.2401 20.6109C21.1082 20.7428 21.1082 20.8747 21.1082 20.8747C21.1082 21.0067 20.9763 21.1386 20.9763 21.2705C20.9763 21.5344 20.8443 21.7982 20.7124 22.0621C18.4697 29.8457 11.6095 36.0462 10.9499 36.7059C10.686 36.8378 10.5541 36.8378 10.2902 36.7059C3.16623 30.2415 0.263852 23.7771 0 20.2151V19.8193C0 19.6874 0.131926 19.4235 0.395778 19.4235H5.80475C5.93668 19.4235 6.20053 19.4235 6.20053 19.6874C6.72823 21.9301 8.70712 23.3813 10.8179 23.3813C13.0607 23.3813 14.9077 21.7982 15.4354 19.6874C15.4354 19.6874 15.5673 19.5555 15.8311 19.5555Z" fill="black"/>
</g>
<path d="M12.44 97.275H13.745V102.135H19.385V97.275H20.69V108H19.385V103.23H13.745V108H12.44V97.275ZM24.3978 97.275H25.7028V108H24.3978V97.275ZM34.0738 108.135C33.2438 108.135 32.5088 108 31.8688 107.73C31.2288 107.46 30.6838 107.085 30.2338 106.605C29.7938 106.115 29.4588 105.54 29.2288 104.88C28.9988 104.21 28.8838 103.485 28.8838 102.705V102.585C28.8838 101.805 29.0088 101.08 29.2588 100.41C29.5088 99.74 29.8638 99.16 30.3238 98.67C30.7838 98.18 31.3288 97.8 31.9588 97.53C32.5988 97.25 33.3038 97.11 34.0738 97.11C34.6038 97.11 35.1138 97.175 35.6038 97.305C36.0938 97.435 36.5338 97.64 36.9238 97.92C37.3238 98.19 37.6538 98.54 37.9138 98.97C38.1838 99.4 38.3588 99.915 38.4388 100.515H37.1338C36.9838 99.665 36.6338 99.06 36.0838 98.7C35.5438 98.33 34.8838 98.145 34.1038 98.145C33.4838 98.145 32.9338 98.255 32.4538 98.475C31.9738 98.685 31.5688 98.985 31.2388 99.375C30.9088 99.765 30.6588 100.23 30.4888 100.77C30.3188 101.31 30.2338 101.91 30.2338 102.57V102.69C30.2338 103.35 30.3138 103.955 30.4738 104.505C30.6438 105.045 30.8888 105.505 31.2088 105.885C31.5288 106.265 31.9288 106.56 32.4088 106.77C32.8888 106.98 33.4438 107.085 34.0738 107.085C34.6538 107.085 35.1538 106.995 35.5738 106.815C35.9938 106.635 36.3388 106.395 36.6088 106.095C36.8888 105.785 37.0938 105.425 37.2238 105.015C37.3638 104.595 37.4388 104.145 37.4488 103.665H34.3138V102.585H38.7238V103.38C38.7238 104.16 38.6088 104.845 38.3788 105.435C38.1588 106.025 37.8438 106.52 37.4338 106.92C37.0238 107.32 36.5338 107.625 35.9638 107.835C35.3938 108.035 34.7638 108.135 34.0738 108.135ZM41.8482 97.275H43.1532V102.135H48.7932V97.275H50.0982V108H48.7932V103.23H43.1532V108H41.8482V97.275ZM53.731 97.275H59.986V98.34H55.036V101.985H59.026V103.05H55.036V106.935H60.256V108H53.731V97.275ZM66.6179 108.135C65.8979 108.135 65.2879 108.045 64.7879 107.865C64.2979 107.675 63.8929 107.425 63.5729 107.115C63.2529 106.805 63.0079 106.445 62.8379 106.035C62.6779 105.625 62.5729 105.19 62.5229 104.73H63.7829C63.8229 105.05 63.8929 105.355 63.9929 105.645C64.0929 105.925 64.2479 106.175 64.4579 106.395C64.6679 106.605 64.9429 106.775 65.2829 106.905C65.6329 107.025 66.0779 107.085 66.6179 107.085C66.9579 107.085 67.2779 107.04 67.5779 106.95C67.8779 106.85 68.1379 106.71 68.3579 106.53C68.5779 106.35 68.7479 106.135 68.8679 105.885C68.9979 105.635 69.0629 105.36 69.0629 105.06C69.0629 104.76 69.0229 104.5 68.9429 104.28C68.8629 104.05 68.7229 103.855 68.5229 103.695C68.3329 103.535 68.0679 103.4 67.7279 103.29C67.3979 103.18 66.9779 103.085 66.4679 103.005C65.9079 102.915 65.4029 102.8 64.9529 102.66C64.5129 102.52 64.1379 102.34 63.8279 102.12C63.5179 101.89 63.2829 101.61 63.1229 101.28C62.9629 100.94 62.8829 100.53 62.8829 100.05C62.8829 99.64 62.9679 99.26 63.1379 98.91C63.3079 98.55 63.5429 98.24 63.8429 97.98C64.1529 97.72 64.5179 97.515 64.9379 97.365C65.3579 97.215 65.8229 97.14 66.3329 97.14C67.4129 97.14 68.2679 97.395 68.8979 97.905C69.5379 98.405 69.9129 99.135 70.0229 100.095H68.8529C68.7229 99.415 68.4579 98.93 68.0579 98.64C67.6579 98.34 67.0829 98.19 66.3329 98.19C65.5929 98.19 65.0329 98.355 64.6529 98.685C64.2829 99.005 64.0979 99.42 64.0979 99.93C64.0979 100.19 64.1279 100.425 64.1879 100.635C64.2579 100.835 64.3829 101.01 64.5629 101.16C64.7529 101.31 65.0129 101.445 65.3429 101.565C65.6829 101.675 66.1279 101.77 66.6779 101.85C67.2779 101.94 67.8029 102.06 68.2529 102.21C68.7029 102.36 69.0829 102.555 69.3929 102.795C69.7029 103.035 69.9329 103.33 70.0829 103.68C70.2429 104.03 70.3229 104.46 70.3229 104.97C70.3229 105.42 70.2279 105.84 70.0379 106.23C69.8579 106.61 69.6029 106.945 69.2729 107.235C68.9429 107.515 68.5479 107.735 68.0879 107.895C67.6379 108.055 67.1479 108.135 66.6179 108.135ZM75.3071 98.34H72.1871V97.275H79.7321V98.34H76.6121V108H75.3071V98.34ZM87.1705 97.275H90.3955C90.9055 97.275 91.3855 97.33 91.8355 97.44C92.2955 97.55 92.6955 97.725 93.0355 97.965C93.3755 98.205 93.6455 98.515 93.8455 98.895C94.0455 99.265 94.1455 99.72 94.1455 100.26V100.32C94.1455 100.76 94.0755 101.15 93.9355 101.49C93.7955 101.82 93.6055 102.105 93.3655 102.345C93.1255 102.575 92.8455 102.765 92.5255 102.915C92.2055 103.065 91.8605 103.175 91.4905 103.245L94.7755 108H93.3205L90.1255 103.335H88.4755V108H87.1705V97.275ZM90.4855 102.3C91.2555 102.3 91.8405 102.135 92.2405 101.805C92.6405 101.475 92.8405 100.98 92.8405 100.32V100.26C92.8405 99.9 92.7855 99.595 92.6755 99.345C92.5655 99.095 92.4105 98.895 92.2105 98.745C92.0105 98.595 91.7605 98.49 91.4605 98.43C91.1705 98.36 90.8455 98.325 90.4855 98.325H88.4755V102.3H90.4855ZM100.395 97.275H102.105L105.735 108H104.445L103.395 104.91H98.9702L97.9352 108H96.7052L100.395 97.275ZM99.3302 103.875H103.05L101.19 98.355L99.3302 103.875ZM109.699 98.34H106.579V97.275H114.124V98.34H111.004V108H109.699V98.34ZM116.842 97.275H123.097V98.34H118.147V101.985H122.137V103.05H118.147V106.935H123.367V108H116.842V97.275ZM129.039 106.935C129.729 106.935 130.329 106.835 130.839 106.635C131.359 106.435 131.789 106.15 132.129 105.78C132.479 105.41 132.739 104.965 132.909 104.445C133.089 103.915 133.179 103.32 133.179 102.66V102.54C133.179 101.92 133.099 101.355 132.939 100.845C132.789 100.325 132.544 99.88 132.204 99.51C131.874 99.13 131.444 98.84 130.914 98.64C130.394 98.43 129.764 98.325 129.024 98.325H127.569V106.935H129.039ZM126.264 97.275H129.099C130.019 97.275 130.819 97.41 131.499 97.68C132.179 97.95 132.744 98.32 133.194 98.79C133.644 99.26 133.979 99.815 134.199 100.455C134.419 101.095 134.529 101.79 134.529 102.54V102.675C134.529 103.415 134.419 104.11 134.199 104.76C133.989 105.41 133.659 105.975 133.209 106.455C132.759 106.935 132.189 107.315 131.499 107.595C130.819 107.865 130.009 108 129.069 108H126.264V97.275Z" fill="black"/>
<g clip-path="url(#clip1_26_90)">
<path fill-rule="evenodd" clip-rule="evenodd" d="M20.9742 57L18.5708 64.3134H11L17.2489 68.9788L14.8455 76.4183L20.9742 71.7528L27.2231 76.4183L24.8197 68.9788L30.9485 64.3134H23.3777L20.9742 57Z" fill="black"/>
<path fill-rule="evenodd" clip-rule="evenodd" d="M47.2936 57L44.8902 64.3134H37.1992L43.328 68.9788L41.0447 76.4183L47.2936 71.7528L53.4224 76.4183L51.0189 68.9788L57.2678 64.3134H49.5769L47.2936 57Z" fill="black"/>
<path fill-rule="evenodd" clip-rule="evenodd" d="M74.5719 57L72.1685 64.3134H64.5977L70.8466 68.9788L68.4431 76.4183L74.5719 71.7528L80.8208 76.4183L78.4174 68.9788L84.5461 64.3134H76.9753L74.5719 57Z" fill="black"/>
<path fill-rule="evenodd" clip-rule="evenodd" d="M101.97 57L99.6871 64.3134H91.9961L98.1248 68.9788L95.7214 76.4183L101.97 71.7528L108.099 76.4183L105.816 68.9788L112.065 64.3134H104.374L101.97 57Z" fill="black"/>
<path fill-rule="evenodd" clip-rule="evenodd" d="M128.166 57L125.762 64.3134H118.191L124.32 68.9788L122.037 76.4183L128.166 71.7528L134.415 76.4183L132.011 68.9788L138.14 64.3134H130.449L128.166 57Z" fill="black"/>
</g>
<defs>
<clipPath id="clip0_26_90">
<rect width="150" height="37" fill="white"/>
</clipPath>
<clipPath id="clip1_26_90">
<rect width="128" height="20" fill="white" transform="translate(11 57)"/>
</clipPath>
</defs>
</svg>
