<svg width="138" height="53" viewBox="0 0 138 53" fill="none" xmlns="http://www.w3.org/2000/svg">
<path d="M22.1749 9.86393C21.7085 9.47253 21.2422 9.47252 20.6982 9.94219C18.1334 10.8816 13.3147 14.1697 12.1488 13.9349C14.0919 11.2731 16.1904 8.68964 18.5997 6.34104C19.6101 4.93187 18.2888 4.61873 18.1334 3.83587C17.8225 2.81814 17.978 1.72213 18.2888 0.782691C18.7552 -0.00017523 17.8225 -0.156748 17.2785 0.156398C10.983 6.73247 5.62026 13.3086 0.64609 19.9629C-0.131124 20.9806 0.0243187 21.7635 0.568368 22.3898L3.21089 25.7561C3.75495 26.6956 4.60988 26.8521 5.69798 26.1476L14.0142 20.5109C10.6722 25.9909 7.48557 32.1756 5.07621 39.6911C3.98811 42.9009 7.01924 47.7546 11.1385 52.8432C11.6048 53.3912 12.5374 52.8432 11.9156 51.7473C7.9519 44.31 11.2162 32.8019 23.9625 15.8137C24.5842 15.1092 24.8174 14.4045 24.3511 13.7L22.1749 9.86393Z" fill="#1D1D1B"/>
<path d="M54.9719 19.6492L56.06 15.4218C56.2932 14.7955 56.7595 14.4824 57.3813 14.4041H61.1119H62.2L62.8217 12.4469H61.1896L56.06 12.5252C54.9719 12.4469 54.117 12.8384 53.573 14.091L50.7749 25.0511L49.6868 29.3568C49.376 30.2962 49.6091 31.0791 50.7749 31.3923C50.8527 31.3923 51.0081 31.4705 51.0859 31.4705H57.6144L58.1584 29.5134H53.1843C52.7957 29.2002 52.4848 29.2002 52.6403 28.2608L53.8061 23.6419C53.9616 23.0939 54.2724 22.7025 54.8164 22.7025H58.6248L59.1689 21.0584H55.2828C54.8164 20.7453 54.7387 20.2755 54.9719 19.6492Z" fill="#1D1D1B"/>
<path d="M62.6658 28.2615C65.2307 18.1626 63.6762 24.1906 66.0078 15.4225C66.241 14.7962 66.7074 14.483 67.3291 14.4048H70.8266H72.0702L72.5365 12.8391L72.6919 12.3693H72.5365H70.8266H65.9302C64.842 12.291 63.9094 12.6824 63.4431 13.935L61.1114 23.0946L59.557 29.1227C59.2461 30.2186 59.4793 31.0015 60.956 31.2364H61.0337H67.4846L68.0286 29.2792H63.0545C62.8213 29.2792 62.5104 29.201 62.6658 28.2615Z" fill="#1D1D1B"/>
<path d="M37.6405 22.3114L33.9098 19.0234C33.1326 18.084 33.9098 14.5611 35.542 14.4828H39.6612H41.0602L41.5265 12.6039H39.6612H34.5316C32.3554 12.9953 30.5678 17.5359 31.4228 19.7279L35.2311 23.1726C35.7751 23.7989 35.8529 24.3469 35.8529 24.9732L34.7648 28.731C34.5316 29.6704 33.9098 29.6704 33.1326 29.6704H28.003L27.5366 31.471H35.0756C36.2414 31.3927 36.9409 30.6881 37.0964 29.5138L38.34 24.7383C38.6508 23.6423 38.2622 22.8594 37.6405 22.3114Z" fill="#1D1D1B"/>
<path d="M50.2305 21.7632L50.7746 19.4929L51.9404 14.7174C52.0958 13.4648 51.7072 12.7603 50.7746 12.6037C50.6191 12.5254 50.4637 12.5254 50.3083 12.5254H42.9247L39.7381 24.5032L37.8728 31.4708H39.7381H40.4376L45.0232 14.4825H48.0543C48.6761 14.6391 49.0647 14.9523 49.0647 15.5785L47.8212 20.7454C47.6657 21.6066 47.1217 22.1546 46.189 22.4677L43.8574 22.9375L43.4687 24.7381L48.5207 23.7987C49.3756 23.5638 50.0751 22.9375 50.2305 21.7632Z" fill="#1D1D1B"/>
<path d="M77.1227 12.5254H74.0915L72.5371 18.2403L70.8273 24.5815L68.9619 31.4708H70.8273H71.9931L72.5371 29.357L77.1227 12.5254Z" fill="#1D1D1B"/>
<path d="M104.014 12.5254H102.149H101.061L95.8533 31.4708H98.8849L102.149 19.5712L104.014 12.5254Z" fill="#1D1D1B"/>
<path d="M117.304 23.6426C117.46 23.0946 117.77 22.7032 118.315 22.7032H122.123L122.667 21.0591H118.703C118.237 20.746 118.159 20.2763 118.392 19.65L119.558 15.4225C119.792 14.7962 120.257 14.483 120.879 14.4048H124.299H125.698L126.086 13.1522L126.319 12.3693H126.086H124.377H119.636C118.548 12.291 117.615 12.6824 117.149 13.935L114.35 24.8952L113.263 29.201C112.952 30.1404 113.185 30.9233 114.35 31.2364C114.428 31.2364 114.583 31.3147 114.661 31.3147H121.19L121.734 29.3575H116.682C116.294 29.0443 115.983 29.0443 116.138 28.1049L117.304 23.6426Z" fill="#1D1D1B"/>
<path d="M136.425 12.5254H127.486L126.01 17.8489L124.3 24.1901L122.357 31.3924H124.3H126.01H131.451C132.771 31.3142 133.549 30.6096 133.859 29.2787L137.902 14.1694C138.057 13.2299 137.513 12.6037 136.425 12.5254ZM134.637 15.9699L131.295 27.713C131.217 28.6524 130.596 29.2787 129.352 29.357H126.166C126.088 29.357 126.01 29.357 125.932 29.2787C125.621 29.1222 125.621 28.7307 125.777 28.3393L125.932 27.7912L129.896 14.2477H133.782C134.792 14.326 134.948 14.9523 134.637 15.9699Z" fill="#1D1D1B"/>
<path d="M104.635 28.0263L114.195 15.7354L114.894 14.7959C115.749 13.5434 115.439 12.6039 114.195 12.6039C114.195 12.6039 114.195 12.6039 114.117 12.6039H105.413L105.335 14.3262H110.698C111.397 14.3262 111.786 14.6393 111.32 15.2656L102.148 27.4L100.594 29.4355C99.9722 30.3749 100.205 31.0796 101.294 31.5492H102.148H110.775L111.32 29.4355H104.791C104.169 29.279 104.091 28.4961 104.635 28.0263Z" fill="#1D1D1B"/>
<path d="M82.4074 12.6037L72.5368 31.2359L72.3813 31.549H72.5368H74.713L82.4852 16.6746L83.1846 16.7528L83.5733 20.902C83.8841 21.9197 83.1846 21.8415 82.9515 21.8415H80.7753L80.3866 23.4072L82.9515 23.4855C83.4178 23.5638 83.651 23.7987 83.5733 24.2683L84.0396 31.3142H86.6821L85.594 12.5254L82.4074 12.6037Z" fill="#1D1D1B"/>
<path d="M90.7238 28.0261L94.9205 12.5254H91.8898L87.3818 29.2004C87.3041 30.1399 87.6927 31.1575 88.936 31.4708H94.9205L95.5424 29.4353L91.268 29.357C90.7238 29.2787 90.4906 28.809 90.7238 28.0261Z" fill="#1D1D1B"/>
</svg>
