<?xml version="1.0" encoding="utf-8"?>
<!-- Generator: Adobe Illustrator 27.5.0, SVG Export Plug-In . SVG Version: 6.00 Build 0)  -->
<svg version="1.1" xmlns="http://www.w3.org/2000/svg" xmlns:xlink="http://www.w3.org/1999/xlink" x="0px" y="0px"
	 viewBox="0 0 2500 2500" style="enable-background:new 0 0 2500 2500;" xml:space="preserve">
<g id="Background">
	<rect style="fill:#FFFFFF00;" width="2500" height="2500"/>
</g>
<g id="Illustration">
	<g id="Facial_massage_1_">
		<circle style="fill:#F2E6DC;" cx="1250" cy="1250" r="915"/>
		<g>
			<path style="fill:#8B865C;" d="M679.56,1631.098l-41.394-181.093l162.83,194.7c111.094,1.599,205.142-22.325,205.142-22.325
				s-14.804-40.898-45.093-95.699l-214.894-28.59l160.116-57.455c-31.293-42.681-70.094-85.784-116.659-120.496
				c-6.549-4.883-13.128-9.435-19.724-13.681l-245.131,79.93l123.308-125.437c-85.081-10.399-158.095,24.292-186.044,77.936
				c-42.869,82.282,12.557,222.9,172.347,279.22C649.114,1623.308,664.244,1627.589,679.56,1631.098z"/>
			<path style="fill:#776E42;" d="M961.044,1526.681c-14.621-26.454-32.854-56.139-54.778-86.045l-160.116,57.455L961.044,1526.681z
				"/>
			<path style="fill:#776E42;" d="M769.883,1306.459c-41.022-26.409-82.697-40.724-121.823-45.506l-123.308,125.437
				L769.883,1306.459z"/>
			<path style="fill:#776E42;" d="M679.56,1631.098c40.33,9.236,81.958,13.038,121.436,13.606l-162.83-194.7L679.56,1631.098z"/>
			<path style="fill:#776E42;" d="M720.426,1467.741c-0.183,0-0.368-0.05-0.534-0.155c-66.922-42.397-139.995-71.677-217.19-87.025
				c-52.47-10.432-106.315-14.18-160.043-11.137c-0.554,0.026-1.024-0.39-1.055-0.942c-0.031-0.551,0.39-1.024,0.941-1.055
				c53.893-3.051,107.91,0.707,160.547,11.172c77.438,15.397,150.739,44.769,217.87,87.298c0.467,0.295,0.605,0.914,0.31,1.38
				C721.081,1467.576,720.757,1467.741,720.426,1467.741z"/>
		</g>
		<g>
			<path style="fill:#776E42;" d="M667.91,1105.442l-123.734-31.017l183.075-46.904c47.923-74.826,73.665-146.418,73.665-146.418
				s-30.252-3.305-75.208-0.644l-107.656,136.419l34.015-127.344c-38.271,7.297-79.965,19.548-120.021,39.803
				c-5.634,2.849-11.087,5.825-16.367,8.913l-56.787,192.337l-21.429-124.562c-42.083,54.311-52.614,115.151-32.967,151.612
				c30.135,55.924,136.062,64.217,236.679-25.779C650.464,1123.55,659.374,1114.685,667.91,1105.442z"/>
			<path style="fill:#8B865C;" d="M725.708,880.458c-21.702,1.284-46.826,3.964-73.64,9.075l-34.015,127.344L725.708,880.458z"/>
			<path style="fill:#8B865C;" d="M515.68,938.25c-32.841,19.205-58.863,42.799-78.216,67.775l21.429,124.562L515.68,938.25z"/>
			<path style="fill:#8B865C;" d="M667.91,1105.442c22.475-24.339,42.31-51.332,59.34-77.922l-183.075,46.904L667.91,1105.442z"/>
			<path style="fill:#776E42;" d="M335.634,1324.917c-0.121,0-0.243-0.022-0.362-0.068c-0.515-0.2-0.77-0.779-0.57-1.294
				c25.737-66.251,62.815-127.158,110.203-181.027c41.786-47.501,90.023-87.637,143.368-119.294c0.474-0.282,1.088-0.126,1.371,0.35
				c0.281,0.475,0.125,1.088-0.35,1.37c-53.166,31.55-101.24,71.552-142.888,118.895c-47.233,53.693-84.189,114.398-109.84,180.431
				C336.412,1324.675,336.034,1324.917,335.634,1324.917z"/>
		</g>
		<g>
			<rect x="1109.332" y="1238.039" style="fill:#E2A18D;" width="326.765" height="562.579"/>
			<path style="fill:#E2A18D;" d="M1250,1600.567l-730.252,200.815c61.534,81.368,136.352,152.132,221.227,209.062
				c145.528,97.613,320.624-21.829,509.024-21.829c194.416,0,374.665,115.746,522.874,12.354
				c69.996-48.83,132.845-107.196,186.667-173.214L1250,1600.567z"/>
			<g>
				<path style="fill:#FFFFFF;" d="M1250,2165c236.625,0,408.745-43.669,522.874-164.032
					c-112.535-27.375-273.05-47.951-492.551-49.312c-222.428-1.379-407.438,25.569-539.345,58.786
					C847.611,2117.075,1018.816,2165,1250,2165z"/>
				<path style="fill:#E6D0BE;" d="M884.861,2090.229c-0.471,0-0.89-0.333-0.981-0.813c-0.103-0.542,0.253-1.066,0.795-1.169
					c109.396-20.842,236.925-33.369,413.504-40.617c98.494-4.043,178.563-5.532,237.027-6.62
					c62.55-1.163,107.927-2.007,111.059-5.362c-0.573-0.732-4.742-3.502-34.688-8.085c-22.131-3.388-52.873-6.943-88.903-10.283
					c-82.826-7.677-181.924-13.167-271.884-15.06c-166.931-3.515-334.636,11.121-460.093,40.149c-0.543,0.124-1.075-0.211-1.2-0.749
					c-0.124-0.538,0.211-1.075,0.749-1.2c57.26-13.249,126.788-23.964,201.069-30.989c84.22-7.964,171.527-11.062,259.518-9.212
					c88.783,1.869,186.868,7.263,269.104,14.799c58.011,5.316,122.039,13.167,127.767,19.255c0.429,0.457,0.636,0.949,0.615,1.465
					c-0.084,2.086-2.388,3.917-29.851,5.194c-18.945,0.881-47.312,1.409-83.225,2.076c-58.455,1.087-138.511,2.576-236.982,6.618
					c-176.477,7.244-303.916,19.761-413.211,40.584C884.986,2090.223,884.923,2090.229,884.861,2090.229z"/>
			</g>
			<path style="fill:#E2A18D;" d="M1540.318,1087.363c0,174.923-121.152,359.44-270.6,359.44s-270.6-184.518-270.6-359.44
				c0-174.923,121.152-316.725,270.6-316.725S1540.318,912.441,1540.318,1087.363z"/>
			<path style="fill:#363E44;" d="M1269.718,1447.804c-53.391,0-105.947-23.475-151.99-67.887c-0.397-0.383-0.409-1.017-0.025-1.414
				c0.385-0.397,1.018-0.408,1.414-0.025c45.662,44.045,97.739,67.327,150.602,67.327c57.484,0,113.352-27.124,161.561-78.438
				c0.377-0.403,1.011-0.422,1.413-0.044c0.402,0.378,0.423,1.011,0.044,1.414
				C1384.14,1420.462,1327.769,1447.804,1269.718,1447.804z"/>
			<path style="fill:#363E44;" d="M1275.113,1238.752c-0.331,0-0.654-0.164-0.845-0.464c-0.297-0.466-0.158-1.084,0.308-1.38
				c9.596-6.096,15.426-13.247,17.329-21.254c2.03-8.54-1.025-15.473-4.895-24.251c-2.899-6.579-6.186-14.037-8.099-23.844
				c-2.435-12.479-1.971-25.729,1.381-39.379c0.131-0.536,0.674-0.863,1.209-0.733c0.536,0.132,0.864,0.673,0.732,1.209
				c-3.28,13.367-3.738,26.327-1.359,38.52c1.87,9.588,5.108,16.936,7.966,23.42c3.861,8.761,7.196,16.327,5.01,25.52
				c-2.027,8.531-8.151,16.094-18.202,22.479C1275.482,1238.701,1275.297,1238.752,1275.113,1238.752z"/>
			<path style="fill:#363E44;" d="M1249.321,1299.86c-11.909,0-23.056-5.25-29.634-14.329c-5.954-8.218-7.852-19.089-5.206-29.827
				c0.132-0.536,0.68-0.861,1.21-0.732c0.536,0.132,0.864,0.674,0.731,1.21c-2.504,10.166-0.724,20.435,4.884,28.175
				c7.426,10.248,21.064,15.319,34.748,12.915c0.545-0.095,1.062,0.268,1.158,0.812c0.095,0.544-0.269,1.063-0.813,1.158
				C1254.031,1299.658,1251.661,1299.86,1249.321,1299.86z"/>
			<path style="fill:#363E44;" d="M1123.853,1145.841c-53.995,0-98.387-50.199-98.829-50.706c-0.362-0.416-0.319-1.048,0.097-1.411
				c0.415-0.363,1.046-0.321,1.411,0.096c0.437,0.5,44.246,50.02,97.321,50.02c53.077,0,96.886-49.52,97.322-50.02
				c0.365-0.417,0.996-0.459,1.411-0.096c0.416,0.363,0.459,0.995,0.097,1.411
				C1222.24,1095.642,1177.849,1145.841,1123.853,1145.841z"/>
			<path style="fill:#363E44;" d="M1419.904,1145.841c-53.995,0-98.387-50.199-98.829-50.706c-0.362-0.416-0.319-1.048,0.097-1.411
				c0.415-0.363,1.046-0.321,1.411,0.096c0.437,0.5,44.245,50.02,97.321,50.02s96.886-49.52,97.322-50.02
				c0.365-0.417,0.996-0.459,1.411-0.096c0.416,0.363,0.459,0.995,0.097,1.411C1518.292,1095.642,1473.9,1145.841,1419.904,1145.841
				z"/>
			<g>
				<path style="fill:#FFFFFF;" d="M1269.717,770.638c-42.084,20.32-97.632,53.771-147.484,109.299
					c-115.513,128.666-115.155,278.692-139.351,278.705c-48.845,0.025-84.113-191.305-55.31-345.39
					c26.043-139.322,141.769-289.268,217.648-283.851C1210.564,534.067,1251.738,687.848,1269.717,770.638z"/>
				<path style="fill:#E6D0BE;" d="M962.771,1099.303c-0.036,0-0.073-0.002-0.11-0.006c-0.549-0.06-0.944-0.554-0.885-1.103
					c8.455-77.145,36.295-189.71,120.912-287.869c23.38-27.12,50.019-51.822,79.178-73.418c0.443-0.329,1.069-0.235,1.398,0.208
					c0.328,0.444,0.235,1.07-0.209,1.399c-29.039,21.508-55.569,46.108-78.852,73.117
					c-84.282,97.77-112.016,209.917-120.439,286.781C963.707,1098.924,963.274,1099.303,962.771,1099.303z"/>
				<path style="fill:#E6D0BE;" d="M919.671,941.275c-0.078,0-0.157-0.009-0.236-0.028c-0.537-0.13-0.866-0.671-0.736-1.208
					c8.417-34.7,20.896-67.711,37.088-98.116c25.959-48.744,60.495-88.912,102.65-119.388c23.716-17.145,49.895-31.204,77.81-41.787
					c0.513-0.195,1.094,0.064,1.29,0.581c0.195,0.516-0.064,1.094-0.581,1.289c-27.75,10.52-53.773,24.495-77.347,41.537
					c-91.251,65.972-126.234,163.871-138.967,216.355C920.531,940.968,920.121,941.275,919.671,941.275z"/>
				<path style="fill:#E6D0BE;" d="M908.179,915.615c-0.076,0-0.152-0.009-0.229-0.027c-0.537-0.126-0.871-0.664-0.745-1.202
					c16.367-69.767,54.879-170.106,145.4-251.923c40.467-36.575,81.84-60.117,109.421-73.426c0.499-0.24,1.096-0.031,1.335,0.466
					c0.24,0.497,0.031,1.095-0.466,1.335c-27.463,13.252-68.658,36.693-108.948,73.109
					c-90.139,81.47-128.493,181.406-144.795,250.896C909.043,915.304,908.633,915.615,908.179,915.615z"/>
				<path style="fill:#FFFFFF;" d="M1566.297,1167.26c-31.566,3.79-27.951-137.099-149.087-221.858
					c-75.831-53.059-112.76-58.251-217.242-110.201c-43.466-21.612-110.5-71.766-108.621-144.181
					c0.931-35.917,19.538-64.431,34.078-81.887c-8.902-12.258-27.469-41.608-23.429-77.578c5.603-49.879,50.02-79.123,74.544-86.048
					c117.014-33.042,318.431,73.669,406.797,245.513C1691.948,902.235,1607.276,1162.34,1566.297,1167.26z"/>
				<path style="fill:#E6D0BE;" d="M1610.635,1023.831c-0.452,0-0.862-0.309-0.972-0.768
					c-14.268-59.797-76.648-262.578-280.312-361.361c-62.414-30.273-131.218-47.641-204.499-51.62
					c-0.551-0.03-0.974-0.501-0.944-1.053c0.03-0.552,0.532-0.971,1.053-0.944c73.548,3.994,142.608,21.427,205.264,51.817
					c49.605,24.06,94.577,56.129,133.668,95.315c32.081,32.16,60.484,69.368,84.419,110.591
					c28.338,48.805,50.817,104.488,63.297,156.79c0.128,0.537-0.203,1.077-0.74,1.205
					C1610.79,1023.822,1610.712,1023.831,1610.635,1023.831z"/>
				<path style="fill:#E6D0BE;" d="M1182.743,826.772c-0.175,0-0.352-0.046-0.513-0.142c-17.574-10.509-42.65-28.278-62.309-53.254
					c-20.371-25.882-30.321-53.599-29.575-82.381c0.728-28.08,12.103-55.631,33.813-81.904
					c-11.15-15.523-24.115-39.845-23.723-68.643c0.008-0.553,0.456-1.005,1.014-0.986c0.552,0.008,0.994,0.462,0.986,1.014
					c-0.391,28.641,12.725,52.826,23.797,68.071c0.269,0.37,0.252,0.876-0.041,1.228c-21.737,26.098-33.125,53.442-33.846,81.273
					c-1.833,70.664,62.966,117.157,90.911,133.867c0.474,0.283,0.628,0.897,0.345,1.371
					C1183.415,826.598,1183.083,826.772,1182.743,826.772z"/>
				<path style="fill:#E6D0BE;" d="M1586.426,1101.593c-3.369,0.001-7.604-8.015-18.435-29.396
					c-23.993-47.366-73.917-145.928-173.471-236.055c-94.509-85.561-188.192-122.936-233.215-140.898
					c-20.881-8.331-26.847-10.869-25.635-13.93c0.303-0.766,1.092-1.338,2.41-1.75c15.68-4.898,131.705,10.261,242.344,84.104
					c0.46,0.307,0.584,0.927,0.277,1.387c-0.309,0.459-0.93,0.583-1.387,0.277c-58.519-39.056-116.084-60.038-154.071-70.762
					c-44.814-12.652-77.27-15.367-85.992-13.254c-1.499,0.363-1.723,0.738-1.725,0.742c0.356,1.689,11.554,6.156,24.52,11.329
					c45.131,18.005,139.04,55.471,233.815,141.273c99.828,90.376,149.866,189.16,173.913,236.634
					c4.835,9.545,8.653,17.083,11.586,22.002c3.942,6.609,5.075,6.311,5.192,6.258c0.064-0.03,0.634-0.357,1.021-2.532
					c4.157-23.422-27.18-162.37-132.756-269.538c-0.388-0.393-0.384-1.027,0.01-1.414c0.395-0.387,1.027-0.383,1.414,0.011
					c57.395,58.259,90.498,123.127,108.163,167.286c20.83,52.072,27.239,92.167,25.138,104.006
					c-0.389,2.191-1.087,3.496-2.134,3.991C1587.086,1101.514,1586.76,1101.593,1586.426,1101.593z"/>
				<path style="fill:#E6D0BE;" d="M1630.521,929.617c-3.369,0-7.604-8.014-18.433-29.394
					c-23.993-47.366-73.917-145.928-173.472-236.057c-20.39-18.458-42.196-35.927-64.816-51.92
					c-0.451-0.319-0.559-0.943-0.239-1.394c0.317-0.45,0.944-0.558,1.394-0.239c22.686,16.04,44.556,33.559,65.004,52.071
					c99.83,90.377,149.867,189.162,173.914,236.635c4.834,9.544,8.652,17.083,11.585,22.001c3.94,6.609,5.077,6.312,5.191,6.258
					c0.064-0.03,0.634-0.357,1.021-2.532c4.158-23.422-27.178-162.368-132.755-269.538
					c-64.708-65.683-140.012-101.899-191.789-120.713c-57.881-21.033-107.087-27.802-122.114-25.757
					c-3.003,0.409-3.385,1.039-3.389,1.045c0.356,1.689,11.554,6.156,24.52,11.328c18.294,7.299,45.94,18.328,78.645,34.934
					c0.492,0.25,0.688,0.852,0.438,1.344c-0.251,0.492-0.853,0.689-1.345,0.439c-32.623-16.565-60.219-27.575-78.479-34.86
					c-20.881-8.33-26.847-10.868-25.635-13.929c0.388-0.98,1.546-1.635,3.646-2.061c11.7-2.378,59.351,2.396,121.501,24.594
					c52.795,18.856,129.555,55.368,195.427,122.233c57.394,58.259,90.497,123.127,108.161,167.285
					c20.83,52.073,27.24,92.168,25.138,104.006c-0.389,2.19-1.087,3.496-2.134,3.991
					C1631.182,929.538,1630.855,929.617,1630.521,929.617z"/>
				<path style="fill:#E6D0BE;" d="M1293.631,563.039c-0.156,0-0.315-0.037-0.464-0.115c-3.083-1.619-6.207-3.233-9.286-4.796
					c-0.492-0.25-0.688-0.852-0.438-1.344c0.249-0.492,0.848-0.689,1.345-0.439c3.087,1.568,6.219,3.185,9.31,4.809
					c0.489,0.257,0.678,0.861,0.421,1.35C1294.338,562.844,1293.99,563.039,1293.631,563.039z"/>
			</g>
			<path style="fill:#363E44;" d="M1331.979,1823.36c-0.44,0-0.844-0.294-0.965-0.74c-0.144-0.533,0.172-1.082,0.705-1.226
				c34.218-9.236,69.286-16.559,104.23-21.766c93.342-13.908,188.919-13.36,284.074,1.631c0.546,0.086,0.919,0.598,0.833,1.144
				s-0.6,0.917-1.144,0.832c-94.957-14.959-190.327-15.508-283.469-1.628c-34.868,5.196-69.86,12.503-104.004,21.718
				C1332.154,1823.349,1332.066,1823.36,1331.979,1823.36z"/>
			<path style="fill:#363E44;" d="M1212.762,1823.36c-0.087,0-0.174-0.011-0.262-0.035c-34.144-9.215-69.136-16.522-104.004-21.718
				c-93.141-13.88-188.512-13.332-283.469,1.628c-0.552,0.086-1.058-0.287-1.143-0.832c-0.086-0.546,0.287-1.058,0.833-1.144
				c95.157-14.991,190.733-15.54,284.074-1.631c34.944,5.208,70.013,12.53,104.23,21.766c0.533,0.144,0.849,0.693,0.705,1.226
				C1213.605,1823.066,1213.202,1823.36,1212.762,1823.36z"/>
		</g>
		<g>
			<g>
				<path style="fill:#BC8271;" d="M1737.975,1162.811c0,0-122.444,239.074-169.431,271.661
					c-39.001,27.048-188.676,21.07-188.676,21.07L1737.975,1162.811z"/>
				<path style="fill:#F7F1EB;" d="M1434.407,1429.031c-15.143,1.46-26.662,10.494-25.728,20.176
					c0.934,9.682,13.445,9.58,28.657,9.766c15.194,0.186,27.114-5.373,26.18-15.055
					C1462.583,1434.235,1449.55,1427.57,1434.407,1429.031z"/>
				<path style="fill:#BC8271;" d="M1609.347,408.276l-25.126,616.174c0,0-59.905,73.241-72.662,103.968
					c-20.555,49.51-45.689,197.425-45.689,197.425s-147.44,105.862-108.03,146.596c24.422,25.244,182.478-98.306,182.478-98.306
					s174.574-161.254,208.283-229.293c54.367-109.731,132.592-340.436,185.107-502.93
					C1844.74,541.951,1734.18,461.639,1609.347,408.276z"/>
				<path style="fill:#BC8271;" d="M1597.729,1162.811c0,0-103.473,179.482-146.642,148.73
					c-26.098-18.591,45.121-120.073,45.121-120.073s-4.044-103.941,88.013-167.018L1597.729,1162.811z"/>
				<path style="fill:#363E44;" d="M1469.781,1314.98c-0.436,0-0.837-0.288-0.962-0.729c-0.149-0.531,0.16-1.084,0.691-1.234
					c47.777-13.485,126.562-149.335,127.352-150.706c0.274-0.478,0.885-0.643,1.365-0.367c0.479,0.276,0.644,0.887,0.367,1.366
					c-3.243,5.625-79.983,137.926-128.541,151.631C1469.963,1314.967,1469.872,1314.98,1469.781,1314.98z"/>
				<path style="fill:#F7F1EB;" d="M1480.638,1288.694c-8.595,14.888-23.28,22.501-32.799,17.005
					c-9.519-5.496-3.553-18.314,3.381-34.044c6.926-15.712,18.226-25.365,27.746-19.869
					C1488.485,1257.282,1489.234,1273.806,1480.638,1288.694z"/>
				<path style="fill:#F7F1EB;" d="M1380.709,1438.722c-15.459,7.519-24.094,21.628-19.286,31.513
					c4.808,9.884,18.016,4.841,34.198-0.962c16.163-5.796,26.592-16.384,21.784-26.269S1396.168,1431.203,1380.709,1438.722z"/>
				<path style="fill:#363E44;" d="M1414.427,1459.849c-0.344,0-0.679-0.177-0.864-0.496c-0.278-0.477-0.118-1.089,0.359-1.368
					c50.979-29.755,123.577-83.021,125.758-84.624c1.509-1.396,41.577-38.509,86.133-83.678c0.388-0.393,1.022-0.397,1.414-0.01
					c0.394,0.388,0.397,1.021,0.01,1.414c-45.227,45.85-85.836,83.407-86.24,83.781l-0.086,0.071
					c-0.738,0.543-74.387,54.66-125.98,84.773C1414.771,1459.805,1414.598,1459.849,1414.427,1459.849z"/>
			</g>
			<g>
				<path style="fill:#BC8271;" d="M809.388,1162.811c0,0,122.444,239.074,169.431,271.661
					c39.001,27.048,188.676,21.07,188.676,21.07L809.388,1162.811z"/>
				<path style="fill:#F7F1EB;" d="M1112.956,1429.031c15.143,1.46,26.662,10.494,25.728,20.176
					c-0.934,9.682-13.445,9.58-28.657,9.766c-15.194,0.186-27.114-5.373-26.18-15.055
					C1084.78,1434.235,1097.813,1427.57,1112.956,1429.031z"/>
				<path style="fill:#BC8271;" d="M601.6,604.411c51.933,162.404,138.457,421.942,197.162,540.429
					c33.71,68.039,208.283,229.293,208.283,229.293s158.056,123.55,182.477,98.306c39.411-40.734-108.03-146.596-108.03-146.596
					s-25.134-147.915-45.688-197.425c-12.757-30.728-72.662-103.968-72.662-103.968l-25.879-634.601
					C809.75,436.222,695.465,510.14,601.6,604.411z"/>
				<path style="fill:#BC8271;" d="M949.635,1162.811c0,0,103.473,179.482,146.642,148.73
					c26.098-18.591-45.121-120.073-45.121-120.073s4.044-103.941-88.013-167.018L949.635,1162.811z"/>
				<path style="fill:#363E44;" d="M1077.582,1314.98c-0.091,0-0.182-0.013-0.272-0.038
					c-48.558-13.706-125.298-146.006-128.541-151.631c-0.276-0.479-0.111-1.09,0.367-1.366c0.479-0.276,1.091-0.111,1.365,0.367
					c0.79,1.371,79.574,137.22,127.352,150.706c0.531,0.15,0.841,0.703,0.691,1.234
					C1078.419,1314.692,1078.018,1314.98,1077.582,1314.98z"/>
				<path style="fill:#F7F1EB;" d="M1066.725,1288.694c8.595,14.888,23.28,22.501,32.799,17.005s3.553-18.314-3.381-34.044
					c-6.926-15.712-18.226-25.365-27.745-19.869C1058.878,1257.282,1058.129,1273.806,1066.725,1288.694z"/>
				<path style="fill:#F7F1EB;" d="M1166.654,1438.722c15.459,7.519,24.094,21.628,19.286,31.513
					c-4.808,9.884-18.016,4.841-34.198-0.962c-16.163-5.796-26.592-16.384-21.784-26.269S1151.195,1431.203,1166.654,1438.722z"/>
				<path style="fill:#363E44;" d="M1131.313,1458.897c-0.172,0-0.347-0.044-0.506-0.138
					c-51.486-30.276-123.631-83.288-124.354-83.82l-0.086-0.071c-0.404-0.374-41.014-37.931-86.24-83.781
					c-0.388-0.393-0.384-1.026,0.01-1.414c0.392-0.388,1.026-0.383,1.414,0.01c44.556,45.169,84.624,82.283,86.133,83.678
					c2.153,1.582,73.268,53.76,124.137,83.674c0.477,0.28,0.635,0.893,0.355,1.369
					C1131.989,1458.721,1131.655,1458.897,1131.313,1458.897z"/>
			</g>
		</g>
		<g>
			<path style="fill:#FFFFFF;" d="M1740.017,1475.699l-0.177-0.036c-26.897-5.455-47.94-26.441-53.467-53.324l-0.036,0.177
				c-5.455,26.897-26.442,47.94-53.324,53.467l0.177,0.036c26.897,5.455,47.94,26.441,53.467,53.324l0.036-0.177
				C1692.149,1502.269,1713.135,1481.227,1740.017,1475.699z"/>
			<path style="fill:#FFFFFF;" d="M952.411,1119.517l-0.177-0.036c-26.897-5.455-47.94-26.441-53.467-53.324l-0.036,0.177
				c-5.455,26.897-26.442,47.94-53.324,53.467l0.177,0.036c26.897,5.455,47.94,26.441,53.467,53.324l0.036-0.177
				C904.542,1146.087,925.528,1125.045,952.411,1119.517z"/>
			<path style="fill:#FFFFFF;" d="M1036.963,1451.247l-0.289-0.059c-44.035-8.931-78.485-43.289-87.534-87.3l-0.059,0.289
				c-8.931,44.035-43.289,78.485-87.299,87.534l0.289,0.059c44.035,8.931,78.485,43.289,87.534,87.3l0.059-0.289
				C958.594,1494.746,992.952,1460.296,1036.963,1451.247z"/>
			<path style="fill:#FFFFFF;" d="M1192.239,980.152l-0.176-0.036c-26.897-5.455-47.94-26.441-53.467-53.324l-0.036,0.176
				c-5.455,26.897-26.442,47.94-53.324,53.467l0.177,0.036c26.897,5.455,47.94,26.442,53.467,53.324l0.036-0.177
				C1144.37,1006.722,1165.356,985.68,1192.239,980.152z"/>
			<path style="fill:#FFFFFF;" d="M1493.895,1618.112l-0.267-0.054c-40.676-8.25-72.497-39.986-80.856-80.639l-0.054,0.267
				c-8.25,40.675-39.986,72.497-80.639,80.856l0.267,0.054c40.675,8.25,72.497,39.986,80.856,80.639l0.054-0.267
				C1421.506,1658.293,1453.242,1626.471,1493.895,1618.112z"/>
		</g>
		<g>
			<path style="fill:#8B865C;" d="M2036.241,1440.921l-62.974-174.764l-31.877,251.804
				c-92.632,61.349-184.704,92.011-184.704,92.011s-9.631-42.415-13.738-104.895l165.412-140.128l-165.785,38.127
				c3.284-52.822,12.657-110.054,33.098-164.418c2.875-7.646,5.953-15.031,9.21-22.167l249.472-65.13l-171.525-38.966
				c65.987-54.705,146.172-64.945,198.667-34.894c80.52,46.093,109.823,194.373,5.764,328.076
				C2057.657,1417.921,2047.236,1429.696,2036.241,1440.921z"/>
			<path style="fill:#776E42;" d="M1742.948,1505.078c-1.983-30.161-2.672-64.991-0.373-102.001l165.785-38.127L1742.948,1505.078z"
				/>
			<path style="fill:#776E42;" d="M1784.884,1216.492c20.26-44.382,47.602-78.939,77.947-104.096l171.525,38.966L1784.884,1216.492z
				"/>
			<path style="fill:#776E42;" d="M2036.241,1440.921c-28.953,29.556-61.934,55.239-94.851,77.04l31.877-251.804L2036.241,1440.921z
				"/>
			<path style="fill:#776E42;" d="M1913.075,1325.672c-0.141,0-0.284-0.03-0.421-0.093c-0.501-0.233-0.718-0.828-0.484-1.329
				c33.525-72.05,79.352-136.36,136.206-191.143c29.325-28.255,61.58-53.833,95.871-76.021c0.463-0.3,1.082-0.168,1.383,0.296
				c0.3,0.464,0.167,1.083-0.297,1.383c-34.183,22.119-66.337,47.616-95.568,75.783c-56.677,54.611-102.36,118.72-135.782,190.546
				C1913.813,1325.458,1913.452,1325.672,1913.075,1325.672z"/>
		</g>
	</g>
</g>
</svg>
