<svg width="667.64375px" height="242px" xmlns="http://www.w3.org/2000/svg" viewBox="-83.82187499999998 -46 667.64375 242" style="background: rgba(255, 255, 255, 0);" preserveAspectRatio="xMidYMid"><defs><linearGradient id="editing-outline-gradient" x1="1.4945218953682733" x2="-0.4945218953682733" y1="0.39547153673234625" y2="0.6045284632676537"><stop offset="0" stop-color="#0135da"></stop><stop offset="1" stop-color="#ff3200"></stop></linearGradient><filter id="editing-outline" x="-100%" y="-100%" width="300%" height="300%"><feMorphology in="SourceGraphic" operator="dilate" radius="2" result="outline"></feMorphology><feComposite operator="out" in="outline" in2="SourceAlpha"></feComposite></filter></defs><g filter="url(#editing-outline)"><g transform="translate(12.07997989654541, 99)"><path d="M43.46-33.92L43.46-12.10L43.46-12.10Q43.46-9.15 42.59-6.75L42.59-6.75L42.59-6.75Q41.73-4.35 39.52-2.66L39.52-2.66L39.52-2.66Q37.31-0.96 33.44 0L33.44 0L33.44 0Q29.57 0.96 23.62 0.96L23.62 0.96L23.62 0.96Q17.66 0.96 13.76 0L13.76 0L13.76 0Q9.86-0.96 7.65-2.66L7.65-2.66L7.65-2.66Q5.44-4.35 4.58-6.75L4.58-6.75L4.58-6.75Q3.71-9.15 3.71-12.10L3.71-12.10L3.71-33.92L3.71-33.92Q3.71-36.86 4.58-39.26L4.58-39.26L4.58-39.26Q5.44-41.66 7.65-43.39L7.65-43.39L7.65-43.39Q9.86-45.12 13.76-46.08L13.76-46.08L13.76-46.08Q17.66-47.04 23.62-47.04L23.62-47.04L23.62-47.04Q29.57-47.04 33.44-46.08L33.44-46.08L33.44-46.08Q37.31-45.12 39.52-43.39L39.52-43.39L39.52-43.39Q41.73-41.66 42.59-39.26L42.59-39.26L42.59-39.26Q43.46-36.86 43.46-33.92L43.46-33.92ZM36.48-13.57L36.48-13.57L36.48-32.45L36.48-32.45Q36.48-36.29 33.73-38.69L33.73-38.69L33.73-38.69Q30.98-41.09 23.49-41.09L23.49-41.09L23.49-41.09Q16-41.09 13.31-38.69L13.31-38.69L13.31-38.69Q10.62-36.29 10.62-32.45L10.62-32.45L10.62-13.57L10.62-13.57Q10.62-9.73 13.31-7.33L13.31-7.33L13.31-7.33Q16-4.93 23.49-4.93L23.49-4.93L23.49-4.93Q30.98-4.93 33.73-7.33L33.73-7.33L33.73-7.33Q36.48-9.73 36.48-13.57ZM11.26-13.57L11.26-13.57L11.26-32.45L11.26-32.45Q11.26-36.03 13.82-38.24L13.82-38.24L13.82-38.24Q16.38-40.45 23.49-40.45L23.49-40.45L23.49-40.45Q30.59-40.45 33.22-38.24L33.22-38.24L33.22-38.24Q35.84-36.03 35.84-32.45L35.84-32.45L35.84-13.57L35.84-13.57Q35.84-9.98 33.22-7.78L33.22-7.78L33.22-7.78Q30.59-5.57 23.49-5.57L23.49-5.57L23.49-5.57Q16.38-5.57 13.82-7.78L13.82-7.78L13.82-7.78Q11.26-9.98 11.26-13.57ZM18.24-31.62L18.24-14.40L18.24-14.40Q18.24-13.12 19.20-12.26L19.20-12.26L19.20-12.26Q20.16-11.39 23.62-11.39L23.62-11.39L23.62-11.39Q27.07-11.39 28.03-12.26L28.03-12.26L28.03-12.26Q28.99-13.12 28.99-14.40L28.99-14.40L28.99-31.62L28.99-31.62Q28.99-32.83 28.03-33.70L28.03-33.70L28.03-33.70Q27.07-34.56 23.62-34.56L23.62-34.56L23.62-34.56Q20.16-34.56 19.20-33.70L19.20-33.70L19.20-33.70Q18.24-32.83 18.24-31.62L18.24-31.62ZM74.11-24.64L74.11-24.64L74.11-24.64Q72.96-24.64 72.45-25.15L72.45-25.15L72.45-25.15Q71.94-25.66 70.85-27.33L70.85-27.33L63.04-39.23L63.04-39.23Q62.66-39.87 62.14-40.10L62.14-40.10L62.14-40.10Q61.63-40.32 61.12-40.32L61.12-40.32L60.03-40.32L60.03-40.32Q59.20-40.32 58.78-39.84L58.78-39.84L58.78-39.84Q58.37-39.36 58.37-38.34L58.37-38.34L58.37-5.76L59.01-5.76L59.01-38.34L59.01-38.34Q59.01-38.85 59.20-39.26L59.20-39.26L59.20-39.26Q59.39-39.68 60.03-39.68L60.03-39.68L60.99-39.68L60.99-39.68Q61.44-39.68 61.79-39.55L61.79-39.55L61.79-39.55Q62.14-39.42 62.53-38.78L62.53-38.78L70.34-27.01L70.34-27.01Q71.49-25.28 72.10-24.64L72.10-24.64L72.10-24.64Q72.70-24 74.11-24L74.11-24L74.11-24Q75.52-24 76.13-24.64L76.13-24.64L76.13-24.64Q76.74-25.28 77.89-27.01L77.89-27.01L85.70-38.78L85.70-38.78Q86.08-39.42 86.40-39.55L86.40-39.55L86.40-39.55Q86.72-39.68 87.17-39.68L87.17-39.68L88.13-39.68L88.13-39.68Q88.77-39.68 88.99-39.26L88.99-39.26L88.99-39.26Q89.22-38.85 89.22-38.34L89.22-38.34L89.22-5.76L89.86-5.76L89.86-38.34L89.86-38.34Q89.86-39.36 89.44-39.84L89.44-39.84L89.44-39.84Q89.02-40.32 88.13-40.32L88.13-40.32L87.04-40.32L87.04-40.32Q86.53-40.32 86.05-40.10L86.05-40.10L86.05-40.10Q85.57-39.87 85.18-39.23L85.18-39.23L77.38-27.33L77.38-27.33Q76.29-25.66 75.78-25.15L75.78-25.15L75.78-25.15Q75.26-24.64 74.11-24.64ZM63.42 0L63.42 0L53.89 0L53.89 0Q52.67 0 52.13-0.54L52.13-0.54L52.13-0.54Q51.58-1.09 51.58-2.30L51.58-2.30L51.58-43.78L51.58-43.78Q51.58-44.99 52.13-45.54L52.13-45.54L52.13-45.54Q52.67-46.08 53.89-46.08L53.89-46.08L64.19-46.08L64.19-46.08Q65.22-46.08 65.89-45.63L65.89-45.63L65.89-45.63Q66.56-45.18 67.14-44.16L67.14-44.16L72.90-33.73L72.90-33.73Q73.22-33.15 73.44-32.90L73.44-32.90L73.44-32.90Q73.66-32.64 74.05-32.64L74.05-32.64L74.62-32.64L74.62-32.64Q75.01-32.64 75.23-32.90L75.23-32.90L75.23-32.90Q75.46-33.15 75.78-33.73L75.78-33.73L81.47-44.16L81.47-44.16Q82.05-45.18 82.72-45.63L82.72-45.63L82.72-45.63Q83.39-46.08 84.42-46.08L84.42-46.08L94.78-46.08L94.78-46.08Q96-46.08 96.54-45.54L96.54-45.54L96.54-45.54Q97.09-44.99 97.09-43.78L97.09-43.78L97.09-2.30L97.09-2.30Q97.09-1.09 96.54-0.54L96.54-0.54L96.54-0.54Q96 0 94.78 0L94.78 0L84.93 0L84.93 0Q83.71 0 83.17-0.54L83.17-0.54L83.17-0.54Q82.62-1.09 82.62-2.30L82.62-2.30L82.62-24.83L78.85-17.86L78.85-17.86Q78.27-16.77 77.47-16.29L77.47-16.29L77.47-16.29Q76.67-15.81 75.46-15.81L75.46-15.81L72.90-15.81L72.90-15.81Q71.68-15.81 70.88-16.29L70.88-16.29L70.88-16.29Q70.08-16.77 69.50-17.86L69.50-17.86L65.73-24.83L65.73-2.30L65.73-2.30Q65.73-1.09 65.18-0.54L65.18-0.54L65.18-0.54Q64.64 0 63.42 0ZM129.79 0L129.79 0L108.22 0L108.22 0Q107.01 0 106.46-0.54L106.46-0.54L106.46-0.54Q105.92-1.09 105.92-2.30L105.92-2.30L105.92-43.78L105.92-43.78Q105.92-44.99 106.46-45.54L106.46-45.54L106.46-45.54Q107.01-46.08 108.22-46.08L108.22-46.08L129.79-46.08L129.79-46.08Q137.79-46.08 141.66-42.88L141.66-42.88L141.66-42.88Q145.54-39.68 145.54-33.02L145.54-33.02L145.54-13.06L145.54-13.06Q145.54-6.40 141.66-3.20L141.66-3.20L141.66-3.20Q137.79 0 129.79 0ZM112.90-40.32L112.90-5.76L128.38-5.76L128.38-5.76Q131.65-5.76 133.70-6.43L133.70-6.43L133.70-6.43Q135.74-7.10 136.83-8.26L136.83-8.26L136.83-8.26Q137.92-9.41 138.27-11.01L138.27-11.01L138.27-11.01Q138.62-12.61 138.62-14.46L138.62-14.46L138.62-31.42L138.62-31.42Q138.62-33.28 138.24-34.91L138.24-34.91L138.24-34.91Q137.86-36.54 136.77-37.73L136.77-37.73L136.77-37.73Q135.68-38.91 133.66-39.62L133.66-39.62L133.66-39.62Q131.65-40.32 128.38-40.32L128.38-40.32L112.90-40.32ZM113.54-39.68L128.38-39.68L128.38-39.68Q131.39-39.68 133.28-39.04L133.28-39.04L133.28-39.04Q135.17-38.40 136.19-37.31L136.19-37.31L136.19-37.31Q137.22-36.22 137.60-34.69L137.60-34.69L137.60-34.69Q137.98-33.15 137.98-31.42L137.98-31.42L137.98-14.46L137.98-14.46Q137.98-12.74 137.63-11.23L137.63-11.23L137.63-11.23Q137.28-9.73 136.26-8.67L136.26-8.67L136.26-8.67Q135.23-7.62 133.34-7.01L133.34-7.01L133.34-7.01Q131.46-6.40 128.38-6.40L128.38-6.40L113.54-6.40L113.54-39.68ZM128.06-33.86L120.45-33.86L120.45-12.10L128.06-12.10L128.06-12.10Q129.60-12.10 130.34-12.86L130.34-12.86L130.34-12.86Q131.07-13.63 131.07-15.23L131.07-15.23L131.07-30.78L131.07-30.78Q131.07-32.38 130.34-33.12L130.34-33.12L130.34-33.12Q129.60-33.86 128.06-33.86L128.06-33.86ZM180.54 0L180.54 0L155.97 0L155.97 0Q154.75 0 154.21-0.54L154.21-0.54L154.21-0.54Q153.66-1.09 153.66-2.30L153.66-2.30L153.66-43.78L153.66-43.78Q153.66-44.99 154.21-45.54L154.21-45.54L154.21-45.54Q154.75-46.08 155.97-46.08L155.97-46.08L176.38-46.08L176.38-46.08Q182.66-46.08 185.66-43.68L185.66-43.68L185.66-43.68Q188.67-41.28 188.67-36.29L188.67-36.29L188.67-33.22L188.67-33.22Q188.67-30.53 187.74-28.83L187.74-28.83L187.74-28.83Q186.82-27.14 184.90-26.30L184.90-26.30L184.90-26.30Q188.99-25.92 190.98-23.49L190.98-23.49L190.98-23.49Q192.96-21.06 192.96-16.38L192.96-16.38L192.96-10.50L192.96-10.50Q192.96-5.12 189.92-2.56L189.92-2.56L189.92-2.56Q186.88 0 180.54 0ZM160.77-40.32L160.77-5.76L177.98-5.76L177.98-5.76Q180.67-5.76 182.34-6.24L182.34-6.24L182.34-6.24Q184-6.72 184.86-7.55L184.86-7.55L184.86-7.55Q185.73-8.38 186.05-9.57L186.05-9.57L186.05-9.57Q186.37-10.75 186.37-12.16L186.37-12.16L186.37-16.26L186.37-16.26Q186.37-17.86 186.08-19.20L186.08-19.20L186.08-19.20Q185.79-20.54 184.90-21.54L184.90-21.54L184.90-21.54Q184-22.53 182.34-23.07L182.34-23.07L182.34-23.07Q180.67-23.62 178.05-23.62L178.05-23.62L178.05-23.62Q180.80-24.32 181.47-25.92L181.47-25.92L181.47-25.92Q182.14-27.52 182.14-29.44L182.14-29.44L182.14-33.54L182.14-33.54Q182.14-34.94 181.82-36.16L181.82-36.16L181.82-36.16Q181.50-37.38 180.61-38.30L180.61-38.30L180.61-38.30Q179.71-39.23 178.05-39.78L178.05-39.78L178.05-39.78Q176.38-40.32 173.76-40.32L173.76-40.32L160.77-40.32ZM161.41-39.68L173.76-39.68L173.76-39.68Q178.56-39.68 180.03-37.89L180.03-37.89L180.03-37.89Q181.50-36.10 181.50-33.54L181.50-33.54L181.50-29.44L181.50-29.44Q181.50-28.29 181.28-27.23L181.28-27.23L181.28-27.23Q181.06-26.18 180.26-25.38L180.26-25.38L180.26-25.38Q179.46-24.58 177.92-24.10L177.92-24.10L177.92-24.10Q176.38-23.62 173.76-23.62L173.76-23.62L161.41-23.62L161.41-39.68ZM173.50-35.20L168.06-35.20L168.06-28.29L173.50-28.29L173.50-28.29Q174.72-28.29 175.33-28.93L175.33-28.93L175.33-28.93Q175.94-29.57 175.94-30.85L175.94-30.85L175.94-32.64L175.94-32.64Q175.94-33.92 175.33-34.56L175.33-34.56L175.33-34.56Q174.72-35.20 173.50-35.20L173.50-35.20ZM161.41-22.98L178.05-22.98L178.05-22.98Q182.85-22.98 184.29-21.06L184.29-21.06L184.29-21.06Q185.73-19.14 185.73-16.26L185.73-16.26L185.73-12.16L185.73-12.16Q185.73-9.54 184.26-7.97L184.26-7.97L184.26-7.97Q182.78-6.40 177.98-6.40L177.98-6.40L161.41-6.40L161.41-22.98ZM176.38-18.43L168.06-18.43L168.06-10.88L176.38-10.88L176.38-10.88Q177.60-10.88 178.21-11.52L178.21-11.52L178.21-11.52Q178.82-12.16 178.82-13.44L178.82-13.44L178.82-15.94L178.82-15.94Q178.82-17.22 178.21-17.82L178.21-17.82L178.21-17.82Q177.60-18.43 176.38-18.43L176.38-18.43ZM235.84 0L235.84 0L215.62 0L215.62 0Q214.40 0 213.86-0.54L213.86-0.54L213.86-0.54Q213.31-1.09 213.31-2.30L213.31-2.30L213.31-9.79L213.31-9.79Q213.31-11.01 213.86-11.55L213.86-11.55L213.86-11.55Q214.40-12.10 215.62-12.10L215.62-12.10L232.83-12.10L232.83-12.10Q233.66-12.10 234.08-12.64L234.08-12.64L234.08-12.64Q234.50-13.18 234.50-13.95L234.50-13.95L234.50-13.95Q234.50-15.04 234.08-15.55L234.08-15.55L234.08-15.55Q233.66-16.06 232.83-16.13L232.83-16.13L223.23-17.47L223.23-17.47Q218.75-18.11 216.03-20.42L216.03-20.42L216.03-20.42Q213.31-22.72 213.31-28.10L213.31-28.10L213.31-34.82L213.31-34.82Q213.31-40.26 216.83-43.17L216.83-43.17L216.83-43.17Q220.35-46.08 226.56-46.08L226.56-46.08L244.48-46.08L244.48-46.08Q245.70-46.08 246.24-45.54L246.24-45.54L246.24-45.54Q246.78-44.99 246.78-43.78L246.78-43.78L246.78-36.16L246.78-36.16Q246.78-34.94 246.24-34.40L246.24-34.40L246.24-34.40Q245.70-33.86 244.48-33.86L244.48-33.86L229.57-33.86L229.57-33.86Q228.74-33.86 228.29-33.31L228.29-33.31L228.29-33.31Q227.84-32.77 227.84-31.94L227.84-31.94L227.84-31.94Q227.84-31.10 228.29-30.53L228.29-30.53L228.29-30.53Q228.74-29.95 229.57-29.89L229.57-29.89L239.10-28.61L239.10-28.61Q243.58-27.97 246.34-25.66L246.34-25.66L246.34-25.66Q249.09-23.36 249.09-17.98L249.09-17.98L249.09-11.26L249.09-11.26Q249.09-5.82 245.54-2.91L245.54-2.91L245.54-2.91Q241.98 0 235.84 0ZM241.02-39.68L241.02-40.32L226.82-40.32L226.82-40.32Q223.87-40.32 222.08-38.69L222.08-38.69L222.08-38.69Q220.29-37.06 220.29-34.50L220.29-34.50L220.29-29.25L220.29-29.25Q220.29-26.62 221.34-25.63L221.34-25.63L221.34-25.63Q222.40-24.64 224.06-24.32L224.06-24.32L237.57-21.57L237.57-21.57Q239.36-21.18 240.42-20.06L240.42-20.06L240.42-20.06Q241.47-18.94 241.47-15.94L241.47-15.94L241.47-12.22L241.47-12.22Q241.47-9.66 239.71-8.03L239.71-8.03L239.71-8.03Q237.95-6.40 235.01-6.40L235.01-6.40L219.07-6.40L219.07-5.76L235.01-5.76L235.01-5.76Q238.27-5.76 240.19-7.58L240.19-7.58L240.19-7.58Q242.11-9.41 242.11-12.22L242.11-12.22L242.11-15.94L242.11-15.94Q242.11-19.26 240.86-20.54L240.86-20.54L240.86-20.54Q239.62-21.82 237.70-22.21L237.70-22.21L224.19-24.96L224.19-24.96Q222.72-25.22 221.82-26.11L221.82-26.11L221.82-26.11Q220.93-27.01 220.93-29.25L220.93-29.25L220.93-34.50L220.93-34.50Q220.93-36.74 222.53-38.21L222.53-38.21L222.53-38.21Q224.13-39.68 226.82-39.68L226.82-39.68L241.02-39.68ZM288.06 0L288.06 0L258.37 0L258.37 0Q257.15 0 256.61-0.54L256.61-0.54L256.61-0.54Q256.06-1.09 256.06-2.30L256.06-2.30L256.06-43.78L256.06-43.78Q256.06-44.99 256.61-45.54L256.61-45.54L256.61-45.54Q257.15-46.08 258.37-46.08L258.37-46.08L288.06-46.08L288.06-46.08Q289.28-46.08 289.82-45.54L289.82-45.54L289.82-45.54Q290.37-44.99 290.37-43.78L290.37-43.78L290.37-36.29L290.37-36.29Q290.37-35.07 289.82-34.53L289.82-34.53L289.82-34.53Q289.28-33.98 288.06-33.98L288.06-33.98L270.40-33.98L270.40-29.06L282.88-29.06L282.88-29.06Q284.10-29.06 284.64-28.51L284.64-28.51L284.64-28.51Q285.18-27.97 285.18-26.75L285.18-26.75L285.18-19.90L285.18-19.90Q285.18-18.69 284.64-18.14L284.64-18.14L284.64-18.14Q284.10-17.60 282.88-17.60L282.88-17.60L270.40-17.60L270.40-12.10L288.06-12.10L288.06-12.10Q289.28-12.10 289.82-11.55L289.82-11.55L289.82-11.55Q290.37-11.01 290.37-9.79L290.37-9.79L290.37-2.30L290.37-2.30Q290.37-1.09 289.82-0.54L289.82-0.54L289.82-0.54Q289.28 0 288.06 0ZM284.61-5.76L284.61-6.40L263.68-6.40L263.68-22.98L279.42-22.98L279.42-23.62L263.68-23.62L263.68-39.68L284.61-39.68L284.61-40.32L263.04-40.32L263.04-5.76L284.61-5.76ZM304.38-17.41L304.38-19.39L304.38-19.39Q304.38-21.12 304.67-22.59L304.67-22.59L304.67-22.59Q304.96-24.06 305.41-25.34L305.41-25.34L309.50-35.84L309.50-35.84Q310.14-37.44 310.91-38.56L310.91-38.56L310.91-38.56Q311.68-39.68 313.60-39.68L313.60-39.68L319.87-39.68L319.87-39.68Q321.66-39.68 322.43-38.56L322.43-38.56L322.43-38.56Q323.20-37.44 323.90-35.78L323.90-35.78L328.32-25.34L328.32-25.34Q328.77-24.06 329.06-22.59L329.06-22.59L329.06-22.59Q329.34-21.12 329.34-19.39L329.34-19.39L329.34-17.41L304.38-17.41ZM314.62-32.64L314.62-32.64L311.62-22.91L321.66-22.91L318.66-32.64L318.66-32.64Q318.40-33.22 318.11-33.47L318.11-33.47L318.11-33.47Q317.82-33.73 317.44-33.73L317.44-33.73L315.84-33.73L315.84-33.73Q315.46-33.73 315.17-33.47L315.17-33.47L315.17-33.47Q314.88-33.22 314.62-32.64ZM329.34-16.77L329.34-5.76L329.98-5.76L329.98-19.39L329.98-19.39Q329.98-21.18 329.70-22.69L329.70-22.69L329.70-22.69Q329.41-24.19 328.90-25.60L328.90-25.60L324.48-36.03L324.48-36.03Q323.71-37.89 322.85-39.10L322.85-39.10L322.85-39.10Q321.98-40.32 319.87-40.32L319.87-40.32L313.60-40.32L313.60-40.32Q311.42-40.32 310.53-39.10L310.53-39.10L310.53-39.10Q309.63-37.89 308.93-36.10L308.93-36.10L304.83-25.60L304.83-25.60Q304.32-24.19 304.03-22.69L304.03-22.69L304.03-22.69Q303.74-21.18 303.74-19.39L303.74-19.39L303.74-5.76L304.38-5.76L304.38-16.77L329.34-16.77ZM310.98-11.26L310.98-2.30L310.98-2.30Q310.98-1.09 310.43-0.54L310.43-0.54L310.43-0.54Q309.89 0 308.67 0L308.67 0L299.26 0L299.26 0Q298.05 0 297.50-0.54L297.50-0.54L297.50-0.54Q296.96-1.09 296.96-2.30L296.96-2.30L296.96-19.20L296.96-19.20Q296.96-21.12 297.57-23.62L297.57-23.62L297.57-23.62Q298.18-26.11 299.46-29.44L299.46-29.44L305.02-43.97L305.02-43.97Q305.41-45.06 306.21-45.57L306.21-45.57L306.21-45.57Q307.01-46.08 308.29-46.08L308.29-46.08L325.50-46.08L325.50-46.08Q326.72-46.08 327.52-45.57L327.52-45.57L327.52-45.57Q328.32-45.06 328.70-43.97L328.70-43.97L334.27-29.44L334.27-29.44Q335.55-26.11 336.16-23.62L336.16-23.62L336.16-23.62Q336.77-21.12 336.77-19.20L336.77-19.20L336.77-2.30L336.77-2.30Q336.77-1.09 336.22-0.54L336.22-0.54L336.22-0.54Q335.68 0 334.46 0L334.46 0L324.80 0L324.80 0Q323.52 0 322.91-0.54L322.91-0.54L322.91-0.54Q322.30-1.09 322.30-2.30L322.30-2.30L322.30-11.26L310.98-11.26ZM352.19-39.68L366.14-39.68L366.14-39.68Q369.54-39.68 371.17-37.82L371.17-37.82L371.17-37.82Q372.80-35.97 372.80-33.02L372.80-33.02L372.80-28.54L372.80-28.54Q372.80-25.02 371.46-23.10L371.46-23.10L371.46-23.10Q370.11-21.18 366.14-21.18L366.14-21.18L352.19-21.18L352.19-39.68ZM363.90-34.56L359.10-34.56L359.10-26.37L363.90-26.37L363.90-26.37Q365.57-26.37 366.14-27.23L366.14-27.23L366.14-27.23Q366.72-28.10 366.72-29.38L366.72-29.38L366.72-31.55L366.72-31.55Q366.72-32.83 366.14-33.70L366.14-33.70L366.14-33.70Q365.57-34.56 363.90-34.56L363.90-34.56ZM351.55-5.76L352.19-5.76L352.19-20.61L370.30-20.61L370.30-20.61Q373.95-20.61 375.68-19.04L375.68-19.04L375.68-19.04Q377.41-17.47 377.41-14.34L377.41-14.34L377.41-5.76L378.05-5.76L378.05-14.34L378.05-14.34Q378.05-17.66 376.13-19.42L376.13-19.42L376.13-19.42Q374.21-21.18 370.30-21.18L370.30-21.18L369.60-21.18L369.60-21.18Q371.90-21.89 372.67-23.78L372.67-23.78L372.67-23.78Q373.44-25.66 373.44-28.61L373.44-28.61L373.44-33.02L373.44-33.02Q373.44-36.16 371.65-38.24L371.65-38.24L371.65-38.24Q369.86-40.32 366.14-40.32L366.14-40.32L351.55-40.32L351.55-5.76ZM356.80 0L356.80 0L346.94 0L346.94 0Q345.73 0 345.18-0.54L345.18-0.54L345.18-0.54Q344.64-1.09 344.64-2.30L344.64-2.30L344.64-43.78L344.64-43.78Q344.64-44.99 345.18-45.54L345.18-45.54L345.18-45.54Q345.73-46.08 346.94-46.08L346.94-46.08L368.26-46.08L368.26-46.08Q375.42-46.08 378.14-43.10L378.14-43.10L378.14-43.10Q380.86-40.13 380.86-35.39L380.86-35.39L380.86-32.45L380.86-32.45Q380.86-29.76 380.06-27.87L380.06-27.87L380.06-27.87Q379.26-25.98 377.28-25.15L377.28-25.15L377.28-25.15Q380.74-24.77 382.88-22.34L382.88-22.34L382.88-22.34Q385.02-19.90 385.02-15.87L385.02-15.87L385.02-2.30L385.02-2.30Q385.02-1.09 384.48-0.54L384.48-0.54L384.48-0.54Q383.94 0 382.72 0L382.72 0L372.80 0L372.80 0Q371.58 0 371.04-0.54L371.04-0.54L371.04-0.54Q370.50-1.09 370.50-2.30L370.50-2.30L370.50-12.10L370.50-12.10Q370.50-13.50 369.95-14.18L369.95-14.18L369.95-14.18Q369.41-14.85 368.06-14.85L368.06-14.85L359.10-14.85L359.10-2.30L359.10-2.30Q359.10-1.09 358.56-0.54L358.56-0.54L358.56-0.54Q358.02 0 356.80 0ZM422.85 0L422.85 0L407.23 0L407.23 0Q399.23 0 395.36-3.20L395.36-3.20L395.36-3.20Q391.49-6.40 391.49-13.06L391.49-13.06L391.49-32.96L391.49-32.96Q391.49-39.62 395.36-42.85L395.36-42.85L395.36-42.85Q399.23-46.08 407.23-46.08L407.23-46.08L422.85-46.08L422.85-46.08Q424.06-46.08 424.61-45.54L424.61-45.54L424.61-45.54Q425.15-44.99 425.15-43.78L425.15-43.78L425.15-36.03L425.15-36.03Q425.15-34.82 424.61-34.27L424.61-34.27L424.61-34.27Q424.06-33.73 422.85-33.73L422.85-33.73L409.98-33.73L409.98-33.73Q408.00-33.73 407.04-32.93L407.04-32.93L407.04-32.93Q406.08-32.13 406.08-30.53L406.08-30.53L406.08-15.30L406.08-15.30Q406.08-13.70 407.04-12.96L407.04-12.96L407.04-12.96Q408.00-12.22 409.98-12.22L409.98-12.22L422.85-12.22L422.85-12.22Q424.06-12.22 424.61-11.68L424.61-11.68L424.61-11.68Q425.15-11.14 425.15-9.92L425.15-9.92L425.15-2.30L425.15-2.30Q425.15-1.09 424.61-0.54L424.61-0.54L424.61-0.54Q424.06 0 422.85 0ZM419.33-5.76L419.33-6.40L408.64-6.40L408.64-6.40Q402.88-6.40 400.96-8.13L400.96-8.13L400.96-8.13Q399.04-9.86 399.04-14.02L399.04-14.02L399.04-31.94L399.04-31.94Q399.04-36.16 401.02-37.92L401.02-37.92L401.02-37.92Q403.01-39.68 408.64-39.68L408.64-39.68L419.33-39.68L419.33-40.32L408.64-40.32L408.64-40.32Q402.50-40.32 400.45-38.40L400.45-38.40L400.45-38.40Q398.40-36.48 398.40-31.94L398.40-31.94L398.40-14.02L398.40-14.02Q398.40-9.60 400.42-7.68L400.42-7.68L400.42-7.68Q402.43-5.76 408.64-5.76L408.64-5.76L419.33-5.76ZM439.30-40.32L439.30-5.76L439.94-5.76L439.94-22.72L464.51-22.72L464.51-5.76L465.15-5.76L465.15-40.32L464.51-40.32L464.51-23.36L439.94-23.36L439.94-40.32L439.30-40.32ZM444.61 0L444.61 0L434.69 0L434.69 0Q433.47 0 432.93-0.54L432.93-0.54L432.93-0.54Q432.38-1.09 432.38-2.30L432.38-2.30L432.38-43.78L432.38-43.78Q432.38-44.99 432.93-45.54L432.93-45.54L432.93-45.54Q433.47-46.08 434.69-46.08L434.69-46.08L444.61-46.08L444.61-46.08Q445.82-46.08 446.37-45.54L446.37-45.54L446.37-45.54Q446.91-44.99 446.91-43.78L446.91-43.78L446.91-29.89L457.60-29.89L457.60-43.78L457.60-43.78Q457.60-44.99 458.14-45.54L458.14-45.54L458.14-45.54Q458.69-46.08 459.90-46.08L459.90-46.08L469.82-46.08L469.82-46.08Q471.04-46.08 471.58-45.54L471.58-45.54L471.58-45.54Q472.13-44.99 472.13-43.78L472.13-43.78L472.13-2.30L472.13-2.30Q472.13-1.09 471.58-0.54L471.58-0.54L471.58-0.54Q471.04 0 469.82 0L469.82 0L459.90 0L459.90 0Q458.69 0 458.14-0.54L458.14-0.54L458.14-0.54Q457.60-1.09 457.60-2.30L457.60-2.30L457.60-16.51L446.91-16.51L446.91-2.30L446.91-2.30Q446.91-1.09 446.37-0.54L446.37-0.54L446.37-0.54Q445.82 0 444.61 0Z" fill="url(#editing-outline-gradient)"></path></g></g><style>text {
  font-size: 64px;
  font-family: Arial Black;
  dominant-baseline: central;
  text-anchor: middle;
}</style></svg>