<svg width="100" height="23" viewBox="0 0 100 23" fill="none" xmlns="http://www.w3.org/2000/svg">
<path d="M0 11.3097V22.6104H2.17857H4.35714V18.0178V13.398L6.02679 13.4523L7.69643 13.5065L10.2589 18.0449L12.8036 22.5832L15.3125 22.6104C16.6696 22.6104 17.7946 22.5742 17.7946 22.5199C17.7946 22.4657 16.6339 20.3683 15.2321 17.8641C13.8125 15.3598 12.6339 13.2715 12.5982 13.2082C12.5625 13.1359 12.9911 12.8647 13.5714 12.5663C14.9018 11.8973 16.2411 10.6407 16.8125 9.50157C17.6071 7.88331 17.6518 5.03554 16.8839 3.52577C16.0893 1.96176 14.2321 0.641834 12.1875 0.198847C11.6071 0.0722809 9.04465 -0.00907898 5.61607 -0.00907898H0V11.3097ZM11.5625 4.23998C12.5625 4.70104 13.0714 5.52374 13.0714 6.71709C13.0714 7.82003 12.6161 8.66984 11.7679 9.13995C11.2589 9.41116 10.625 9.48349 7.77679 9.52869L4.36607 9.60101V6.72612V3.85123H7.58929C10.3661 3.86931 10.9107 3.92356 11.5625 4.23998Z" fill="black"/>
<path d="M69.3303 11.4998V22.6196H71.4196H73.5089V11.4998V0.379885H71.4196H69.3303V11.4998Z" fill="black"/>
<path d="M92.4107 10.7941C92.4643 19.3645 92.4643 19.4007 92.884 20.2595C93.3572 21.2359 94.4822 22.3388 95.3929 22.7185C95.7857 22.8813 96.6965 22.9717 98 22.9717H100V21.1365V19.3012H98.8393C97.9554 19.3012 97.5893 19.2108 97.2054 18.9125L96.7322 18.5418V14.2204V9.9262H98.3661H100V8.18137V6.43654H98.3661H96.7322V4.32107V2.20558H94.5358H92.3572L92.4107 10.7941Z" fill="black"/>
<path d="M23.375 6.41878C21.9018 6.91601 20.9018 7.54885 19.8393 8.67891C18.75 9.87226 18.2411 10.7944 17.875 12.3584C16.9018 16.5532 18.6875 20.5672 22.3214 22.312C23.4464 22.8635 23.5893 22.8906 25.8572 22.8906C27.8839 22.8906 28.3661 22.8364 29.2679 22.4567C30.5357 21.9414 32.2322 20.4316 32.9018 19.184L33.375 18.289L31.9197 17.4301C31.125 16.951 30.4018 16.5713 30.3214 16.5713C30.25 16.5713 29.9375 16.942 29.6161 17.3759C28.8929 18.4427 27.9107 19.0846 26.7143 19.3287C25.6518 19.5366 24.875 19.4191 23.9554 18.9399C22.8661 18.3884 21.7768 16.942 21.7768 16.0198C21.7768 15.6492 21.8482 15.6492 27.7679 15.6492H33.7589V14.1123C33.7589 10.5865 32.1518 7.9828 29.1339 6.63576C27.8393 6.021 24.8393 5.93059 23.375 6.41878ZM28.2768 10.0079C28.75 10.3424 29.2054 10.8667 29.4911 11.4815L29.9643 12.4217L25.9375 12.4759C23.7232 12.5031 21.875 12.4759 21.8214 12.4217C21.5714 12.1686 22.875 10.5232 23.7857 9.97171C24.7143 9.39312 24.875 9.36599 26.1697 9.42023C27.3125 9.47448 27.6429 9.5468 28.2768 10.0079Z" fill="black"/>
<path d="M56.2858 6.35565C53.9466 7.02465 51.7858 8.76947 50.9019 10.7313C50.268 12.1687 49.9912 14.3746 50.268 16.0381C50.9733 20.3866 54.143 22.9902 58.7948 22.9902C61.518 22.9902 63.3305 22.3212 65.0894 20.7301C66.1073 19.7899 66.7948 18.6146 67.2412 17.0325C67.6251 15.6855 67.5358 12.684 67.0805 11.4003C66.3305 9.32094 64.3573 7.39531 62.1251 6.5907C60.7412 6.07539 57.6876 5.95787 56.2858 6.35565ZM60.7055 10.46C63.2501 11.5992 64.0894 15.0346 62.3751 17.3128C61.1608 18.931 58.5983 19.5368 56.8751 18.6237C55.9376 18.1083 54.9108 16.9692 54.6251 16.0833C54.259 14.9803 54.4733 13.0185 55.0448 12.1597C56.3305 10.1888 58.5626 9.52887 60.7055 10.46Z" fill="black"/>
<path d="M33.6339 6.69902C33.6875 6.82558 35.1429 10.4689 36.8661 14.7812L40.0089 22.6284L41.9821 22.5742L43.9554 22.5199L47.0179 14.8897C48.7054 10.6949 50.1339 7.07872 50.1964 6.83463L50.3125 6.40973L48.0982 6.46397L45.8661 6.51821L43.9375 11.6984C42.8839 14.5462 41.9643 16.8244 41.9107 16.7521C41.8393 16.6798 40.9464 14.3292 39.9107 11.5176L38.0268 6.4278H35.7768C33.9643 6.44588 33.5536 6.50013 33.6339 6.69902Z" fill="black"/>
<path d="M75.6787 11.4636C75.6787 14.2933 75.768 16.9512 75.8841 17.566C76.2769 19.808 77.4644 21.354 79.4823 22.3213C80.643 22.8728 80.7769 22.8999 83.1341 22.8999C85.4376 22.8999 85.6519 22.8637 86.6698 22.3846C88.6876 21.4353 89.9734 19.7538 90.3662 17.575C90.4823 16.9693 90.5716 14.3024 90.5716 11.4727V6.45516H88.5091H86.4198L86.3662 11.4546C86.3126 16.2551 86.2948 16.5082 85.893 17.2405C85.3126 18.3435 84.3305 18.8226 82.8662 18.7322C81.5626 18.6599 80.8126 18.2079 80.3037 17.1682C80.0001 16.5444 79.9644 15.9206 79.9109 11.4455L79.8573 6.44612H77.768H75.7055V11.4636H75.6787Z" fill="black"/>
</svg>
