<?xml version="1.0" encoding="utf-8"?>
<!-- Generator: Adobe Illustrator 27.5.0, SVG Export Plug-In . SVG Version: 6.00 Build 0)  -->
<svg version="1.1" xmlns="http://www.w3.org/2000/svg" xmlns:xlink="http://www.w3.org/1999/xlink" x="0px" y="0px"
	 viewBox="0 0 500 500" style="enable-background:new 0 0 500 500;" xml:space="preserve">
<g id="BACKGROUND">
	<rect style="fill:#FFFFFF00;" width="500" height="500"/>
</g>
<g id="OBJECTS">
	<g>
		<g>
			<rect x="114.467" y="240.941" style="fill:#6376BF;" width="22.204" height="101.432"/>
			<rect x="114.467" y="266.18" style="fill:#FCC574;" width="22.204" height="76.193"/>
		</g>
		<g>
			<rect x="61.869" y="283.147" style="fill:#FCC574;" width="22.204" height="59.226"/>
			<rect x="61.869" y="283.147" style="fill:#6376BF;" width="22.204" height="17.869"/>
			<g>
				<rect x="61.869" y="283.147" style="opacity:0.5;fill:#6376BF;" width="22.204" height="2.227"/>
				<rect x="61.869" y="301.016" style="opacity:0.5;fill:#FCC574;" width="22.204" height="2.227"/>
			</g>
		</g>
		<g>
			<rect x="88.168" y="265.944" style="fill:#FCC574;" width="22.204" height="76.428"/>
			<rect x="88.168" y="287.654" style="fill:#6376BF;" width="22.204" height="25.106"/>
			<g>
				<rect x="88.168" y="287.654" style="opacity:0.5;fill:#6376BF;" width="22.204" height="2.227"/>
				<rect x="88.168" y="265.944" style="opacity:0.5;fill:#FCC574;" width="22.204" height="2.227"/>
			</g>
		</g>
		<g>
			<rect x="114.467" y="240.941" style="opacity:0.5;fill:#6376BF;" width="22.204" height="2.227"/>
			<rect x="114.467" y="266.18" style="opacity:0.5;fill:#FCC574;" width="22.204" height="2.227"/>
		</g>
	</g>
	<g>
		<g>
			<path style="fill:#FCC574;" d="M352.075,390.824c0,0,56.104-113.062,88.153-108.02
				C472.277,287.845,352.075,390.824,352.075,390.824z"/>
			<path style="opacity:0.5;fill:#FCC574;" d="M418.423,328.039c17.917-20.057,28.872-37.2,16.264-39.181
				c-8.169-1.282-17.906,5.107-27.876,15.342c11.856-13.668,23.733-22.917,33.418-21.392
				C454.087,284.98,439.476,305.482,418.423,328.039z"/>
			<path style="opacity:0.5;fill:#FCC574;" d="M423.411,303.814c-3.084,2.989-6.052,6.092-8.98,9.23
				c-2.75,2.963-5.437,5.981-8.091,9.027c1.225-3.066,2.252-6.191,3.206-9.338c1.065-3.622,2.055-7.267,2.737-11.003
				c-1.481,3.498-2.654,7.087-3.752,10.7c-0.975,3.308-1.874,6.639-2.542,10.039c-2.864,3.293-5.688,6.62-8.501,9.955
				c-3.287,3.982-6.543,7.988-9.776,12.013c0.6-2.035,1.012-4.099,1.357-6.174c0.378-2.476,0.682-4.964,0.665-7.503
				c-0.809,2.407-1.297,4.866-1.711,7.336c-0.344,2.235-0.611,4.482-0.648,6.765c-2.025,2.524-4.05,5.047-6.041,7.596
				c-5.28,6.76-10.493,13.572-15.538,20.509l16.173-20.003c0.032-0.04,0.064-0.079,0.097-0.119c1.993-0.436,3.9-1.09,5.779-1.815
				c2.068-0.834,4.108-1.738,6.029-2.944c-2.227,0.428-4.336,1.159-6.417,1.959c-1.718,0.69-3.411,1.443-5.037,2.366
				c5.262-6.463,10.51-12.937,15.881-19.307c0.788-0.953,1.596-1.889,2.388-2.838c3.108-1.364,6.107-2.923,9.069-4.551
				c3.303-1.851,6.567-3.771,9.676-5.972c-3.513,1.472-6.87,3.224-10.19,5.046c-2.728,1.527-5.424,3.112-8.032,4.854
				c4.532-5.416,9.122-10.783,13.821-16.05c2.848-3.198,5.742-6.356,8.743-9.41c2.992-3.057,6.065-6.061,9.564-8.545
				C429.701,297.926,426.532,300.876,423.411,303.814z"/>
		</g>
		<g>
			<path style="fill:#FCC574;" d="M357.281,393.457c0,0,13.737-125.467,45.562-131.77
				C434.667,255.383,357.281,393.457,357.281,393.457z"/>
			<path style="opacity:0.5;fill:#FCC574;" d="M397.949,311.663c9.914-25,14.296-44.867,1.776-42.385
				c-8.111,1.609-15.052,10.961-20.888,24.003c6.424-16.915,14.39-29.689,24.007-31.591
				C416.603,258.957,409.946,283.236,397.949,311.663z"/>
			<path style="opacity:0.5;fill:#FCC574;" d="M394.29,287.203c-1.867,3.868-3.584,7.803-5.252,11.758
				c-1.561,3.729-3.045,7.488-4.488,11.262c0.095-3.3-0.018-6.588-0.206-9.871c-0.247-3.767-0.573-7.53-1.219-11.272
				c-0.186,3.794-0.051,7.568,0.162,11.337c0.224,3.442,0.527,6.879,1.071,10.301c-1.555,4.078-3.06,8.174-4.552,12.274
				c-1.715,4.87-3.392,9.753-5.041,14.645c-0.138-2.117-0.461-4.197-0.852-6.264c-0.497-2.455-1.07-4.895-1.96-7.273
				c0.07,2.538,0.458,5.015,0.92,7.476c0.447,2.216,0.97,4.418,1.721,6.575c-1.032,3.066-2.064,6.133-3.056,9.212
				c-2.629,8.164-5.178,16.355-7.525,24.605l8.295-24.349c0.017-0.048,0.033-0.097,0.05-0.145c1.721-1.096,3.286-2.366,4.801-3.694
				c1.654-1.495,3.258-3.047,4.646-4.84c-1.943,1.169-3.672,2.581-5.349,4.049c-1.375,1.24-2.706,2.529-3.914,3.955
				c2.714-7.88,5.412-15.765,8.261-23.595c0.412-1.166,0.848-2.323,1.265-3.487c2.448-2.351,4.727-4.848,6.947-7.395
				c2.463-2.875,4.867-5.802,7.028-8.939c-2.791,2.592-5.34,5.393-7.829,8.246c-2.035,2.373-4.02,4.789-5.869,7.323
				c2.39-6.645,4.851-13.264,7.449-19.827c1.573-3.983,3.202-7.945,4.968-11.845c1.756-3.9,3.606-7.779,6.037-11.316
				C398.168,279.508,396.208,283.37,394.29,287.203z"/>
		</g>
		<g>
			<path style="fill:#FCC574;" d="M343.924,389.486c0,0,94.549-83.612,122.341-66.873
				C494.056,339.351,343.924,389.486,343.924,389.486z"/>
			<path style="opacity:0.5;fill:#FCC574;" d="M429.031,356.306c24.15-11.834,40.755-23.589,29.821-30.173
				c-7.085-4.264-18.511-2.012-31.601,3.715c16.13-8.197,30.616-12.293,39.013-7.233
				C478.284,329.847,457.028,343.337,429.031,356.306z"/>
			<path style="opacity:0.5;fill:#FCC574;" d="M442.774,335.743c-3.983,1.607-7.901,3.364-11.795,5.169
				c-3.663,1.709-7.289,3.493-10.895,5.316c2.29-2.379,4.417-4.888,6.487-7.443c2.351-2.954,4.64-5.958,6.679-9.162
				c-2.689,2.683-5.127,5.566-7.505,8.499c-2.149,2.698-4.236,5.445-6.136,8.343c-3.893,1.972-7.762,3.991-11.624,6.021
				c-4.545,2.451-9.07,4.936-13.58,7.447c1.322-1.659,2.481-3.416,3.583-5.209c1.283-2.151,2.501-4.342,3.442-6.701
				c-1.656,1.925-3.034,4.019-4.347,6.152c-1.16,1.941-2.254,3.921-3.148,6.023c-2.826,1.575-5.652,3.15-8.457,4.762
				c-7.437,4.274-14.831,8.621-22.118,13.148l22.515-12.44c0.045-0.025,0.09-0.049,0.134-0.074c2.01,0.346,4.023,0.459,6.037,0.495
				c2.23,0.006,4.46-0.064,6.694-0.457c-2.225-0.442-4.453-0.559-6.682-0.601c-1.851-0.007-3.703,0.052-5.557,0.295
				c7.308-4.006,14.608-8.027,21.982-11.905c1.089-0.586,2.19-1.149,3.281-1.73c3.393-0.093,6.759-0.408,10.115-0.8
				c3.757-0.471,7.504-1.021,11.213-1.888c-3.809,0.041-7.579,0.4-11.34,0.837c-3.102,0.387-6.196,0.84-9.269,1.473
				c6.238-3.31,12.511-6.554,18.847-9.664c3.843-1.89,7.713-3.726,11.643-5.425c3.923-1.706,7.901-3.331,12.078-4.314
				C450.819,332.657,446.771,334.197,442.774,335.743z"/>
		</g>
	</g>
	<g>
		<g>
			<path style="fill:#143C4A;" d="M362.283,418.667H143.257c-4.527,0-8.196-3.67-8.196-8.196V130.383
				c0-4.527,3.67-8.196,8.196-8.196h219.026c4.527,0,8.196,3.67,8.196,8.196v280.088
				C370.479,414.997,366.809,418.667,362.283,418.667z"/>
			<path style="opacity:0.5;fill:#143C4A;" d="M370.484,130.384v3.973c0-4.524-3.677-8.201-8.201-8.201H143.258
				c-4.524,0-8.201,3.677-8.201,8.201v-3.973c0-4.524,3.677-8.201,8.201-8.201h219.025
				C366.807,122.184,370.484,125.86,370.484,130.384z"/>
			<path style="opacity:0.5;fill:#143C4A;" d="M257.883,409.745c0,2.824-2.289,5.114-5.114,5.114c-2.824,0-5.113-2.289-5.113-5.114
				c0-2.824,2.289-5.114,5.113-5.114C255.594,404.632,257.883,406.921,257.883,409.745z"/>
			<path style="opacity:0.5;fill:#143C4A;" d="M279.772,134.357h-54.004c-0.667,0-1.208-0.541-1.208-1.208l0,0
				c0-0.667,0.541-1.208,1.208-1.208h54.004c0.667,0,1.208,0.541,1.208,1.208l0,0C280.98,133.817,280.439,134.357,279.772,134.357z"
				/>
		</g>
		<path style="fill:#FFF0EB;" d="M356.746,400.632H148.794c-1.962,0-3.553-1.591-3.553-3.553V143.775
			c0-1.962,1.591-3.553,3.553-3.553h207.952c1.962,0,3.553,1.591,3.553,3.553v253.304
			C360.299,399.041,358.708,400.632,356.746,400.632z"/>
		<path style="fill:#B4CBDD;" d="M360.299,151.428v-7.654c0-1.962-1.591-3.553-3.553-3.553H148.794
			c-1.962,0-3.553,1.591-3.553,3.553v7.654H360.299z"/>
		<g>
			<path style="fill:#FCC574;" d="M329.572,145.825c0,1.669-1.353,3.022-3.022,3.022c-1.669,0-3.022-1.353-3.022-3.022
				c0-1.669,1.353-3.022,3.022-3.022C328.219,142.803,329.572,144.156,329.572,145.825z"/>
			<path style="fill:#F05956;" d="M340.919,145.825c0,1.669-1.353,3.022-3.022,3.022c-1.669,0-3.022-1.353-3.022-3.022
				c0-1.669,1.353-3.022,3.022-3.022C339.566,142.803,340.919,144.156,340.919,145.825z"/>
			<path style="fill:#6376BF;" d="M352.266,145.825c0,1.669-1.353,3.022-3.022,3.022c-1.669,0-3.022-1.353-3.022-3.022
				c0-1.669,1.353-3.022,3.022-3.022C350.913,142.803,352.266,144.156,352.266,145.825z"/>
		</g>
		<g>
			
				<text transform="matrix(1 0 0 1 229.3592 187.9408)" style="fill:#B4CBDD; font-family:'Montserrat-Bold'; font-size:35.7563px;">NEWS</text>
			<rect x="231.375" y="196.085" style="fill:#B4CBDD;" width="59.173" height="4.454"/>
			<rect x="231.375" y="216.445" style="fill:#FCC574;" width="59.173" height="8.908"/>
			
				<rect x="286.571" y="297.887" transform="matrix(-1 -1.224647e-16 1.224647e-16 -1 632.3151 604.6819)" style="fill:#FCC574;" width="59.173" height="8.908"/>
			<rect x="231.375" y="203.879" style="fill:#B4CBDD;" width="103.393" height="4.454"/>
			<rect x="231.375" y="230.92" style="fill:#B4CBDD;" width="59.173" height="4.454"/>
			<rect x="231.375" y="238.714" style="fill:#B4CBDD;" width="103.393" height="4.454"/>
			<rect x="159.795" y="263.953" style="fill:#B4CBDD;" width="83.192" height="4.454"/>
			<rect x="159.795" y="272.436" style="fill:#B4CBDD;" width="83.192" height="4.454"/>
			<rect x="159.795" y="280.92" style="fill:#B4CBDD;" width="83.192" height="4.454"/>
			
				<rect x="228.353" y="313.9" transform="matrix(-1 -1.224647e-16 1.224647e-16 -1 574.0969 632.2533)" style="fill:#B4CBDD;" width="117.391" height="4.454"/>
			
				<rect x="228.353" y="322.383" transform="matrix(-1 -1.224647e-16 1.224647e-16 -1 574.0969 649.2204)" style="fill:#B4CBDD;" width="117.391" height="4.454"/>
			
				<rect x="228.353" y="330.867" transform="matrix(-1 -1.224647e-16 1.224647e-16 -1 574.0969 666.1875)" style="fill:#B4CBDD;" width="117.391" height="4.454"/>
			<rect x="228.353" y="344.016" style="fill:#FCC574;" width="59.173" height="8.908"/>
			<rect x="228.353" y="360.029" style="fill:#B4CBDD;" width="117.391" height="4.454"/>
			<rect x="228.353" y="368.513" style="fill:#B4CBDD;" width="117.391" height="4.454"/>
			<rect x="228.353" y="376.996" style="fill:#B4CBDD;" width="117.391" height="4.454"/>
			<rect x="231.375" y="246.509" style="fill:#B4CBDD;" width="103.393" height="4.454"/>
			<g>
				<rect x="159.797" y="159.712" style="fill:#FCC574;" width="62.353" height="91.246"/>
				<g>
					<g>
						<polygon style="fill:#FFFFFF;" points="202.398,202.845 185.592,193.142 185.592,212.548 						"/>
					</g>
					<g>
						<path style="fill:#FFFFFF;" d="M191.794,224.955c-12.192,0-22.11-9.919-22.11-22.11s9.919-22.11,22.11-22.11
							c12.192,0,22.11,9.918,22.11,22.11S203.986,224.955,191.794,224.955z M191.794,183.28c-10.788,0-19.565,8.777-19.565,19.565
							c0,10.788,8.777,19.565,19.565,19.565c10.788,0,19.565-8.777,19.565-19.565C211.359,192.057,202.582,183.28,191.794,183.28z"
							/>
					</g>
				</g>
				<path style="opacity:0.5;fill:#FCC574;" d="M222.15,245.163v5.796h-62.353v-59.439
					C165.063,215.867,180.108,254.518,222.15,245.163z"/>
			</g>
			<g>
				<rect x="159.797" y="292.057" style="fill:#FCC574;" width="62.353" height="91.246"/>
				<path style="opacity:0.5;fill:#FCC574;" d="M221.303,383.304h-61.505v-91.246h1.346
					C166.695,309.656,189.146,374.436,221.303,383.304z"/>
			</g>
			<g>
				<rect x="253.322" y="263.948" style="fill:#F05956;" width="92.422" height="21.424"/>
				<path style="opacity:0.5;fill:#F05956;" d="M345.744,281.854v3.518h-92.422v-21.424h10.373
					C282.586,270.168,321.661,281.949,345.744,281.854z"/>
			</g>
		</g>
	</g>
	<g>
		<rect x="308.253" y="377.46" style="fill:#FFE6DE;" width="101.219" height="43.58"/>
		<g>
			<rect x="308.253" y="382.81" style="fill:#EBD0C8;" width="101.219" height="1.012"/>
			<rect x="308.253" y="389.592" style="fill:#EBD0C8;" width="101.219" height="1.012"/>
			<rect x="308.253" y="396.375" style="fill:#EBD0C8;" width="101.219" height="1.012"/>
			<rect x="308.253" y="403.157" style="fill:#EBD0C8;" width="101.219" height="1.012"/>
			<rect x="308.253" y="409.939" style="fill:#EBD0C8;" width="101.219" height="1.012"/>
			<rect x="308.253" y="416.721" style="fill:#EBD0C8;" width="101.219" height="1.012"/>
		</g>
		<polygon style="fill:#FFFFFF;" points="333.067,382.81 363.714,382.81 347.876,385.143 		"/>
		<polygon style="fill:#FFFFFF;" points="378.003,396.22 408.65,396.22 392.812,398.553 		"/>
		<polygon style="fill:#FFFFFF;" points="308.253,409.784 338.9,409.784 323.061,412.117 		"/>
	</g>
	<g>
		<g>
			<g>
				<g>
					<path style="fill:#FFB894;" d="M212.909,142.802c1.298,5.553,2.242,9.094,2.242,9.094l7.578,2.257l-1.09-11.351H212.909z"/>
					<path style="fill:#F05956;" d="M213.426,153.901c-0.111-0.045-0.2-0.142-0.222-0.26c-0.096-0.52-0.008-1.074,0.251-1.536
						c0.189-0.338,0.46-0.621,0.676-0.942c0.216-0.321,0.38-0.707,0.312-1.088c0.425-0.126,0.89,0.068,1.198,0.388
						c0.308,0.319,0.532,0.715,0.861,1.013c0.585,0.532,1.428,0.685,2.218,0.653c0.79-0.031,1.566-0.222,2.355-0.281
						c0.789-0.058,1.631,0.033,2.267,0.503c0,0,0.436,1.309,1.363,1.938c0.822,0.559,5.104,3.895,5.909,5.894
						c0.115,0.285-0.183,0.564-0.468,0.45L213.426,153.901z"/>
				</g>
				<g>
					<path style="fill:#6376BF;" d="M222.728,149.106h-9.239c0,0-4.588-20.343-4.853-23.702c0,0-5.372-0.381-12.025-0.932
						c-7.597-0.636-16.878-1.494-21.699-2.267c-1.897-0.307-3.094-0.593-3.253-0.858c-0.392-0.657,1.007-3.444,2.702-6.368
						c1.007-1.748,2.13-3.539,3.03-4.958c1.049-1.642,1.812-2.787,1.812-2.787l37.666,7.099c1.505,0.286,2.638,1.526,2.786,3.041
						L222.728,149.106z"/>
					<g style="opacity:0.5;">
						<path style="fill:#6376BF;" d="M215.99,149.106h-1.07l-3.528-25.439c-0.127-0.901-0.88-1.61-1.801-1.685l-14.95-1.155
							l-17.217-1.335l0.085-1.06l14.251,1.102h0.021l17.895,1.388c1.409,0.117,2.564,1.208,2.765,2.606L215.99,149.106z"/>
					</g>
					<path style="opacity:0.5;fill:#6376BF;" d="M208.633,125.408c0,0-2.784-2.367-1.729-3.224
						C207.959,121.326,208.633,125.408,208.633,125.408z"/>
					<path style="opacity:0.3;fill:#6376BF;" d="M196.611,124.472c-7.597-0.636-16.878-1.494-21.699-2.267
						c-0.403-0.562-0.721-1.187-0.911-1.865c-0.36-1.271-0.212-3.359,0.36-5.361c1.007-1.748,2.13-3.539,3.03-4.958
						c0.212-0.138,0.434-0.244,0.657-0.328c3.401-1.187,8.349,2.787,9.387,5.785c0.265,0.773,0.392,1.6,0.858,2.278
						c0.763,1.113,2.119,1.43,3.465,1.78h0.011c0.985,0.254,1.95,0.53,2.712,1.144c0.053,0.042,0.106,0.095,0.159,0.148
						c0.879,0.773,1.324,1.928,1.748,3.051C196.463,124.08,196.537,124.271,196.611,124.472z"/>
				</g>
			</g>
			<g>
				<g>
					<path style="fill:#FFB894;" d="M196.089,163.198c1.298,5.553,2.242,9.094,2.242,9.094l7.578,2.257l-1.09-11.351H196.089z"/>
					<path style="fill:#F05956;" d="M198.031,175.369c-0.12-0.002-0.238-0.06-0.301-0.162c-0.277-0.451-0.394-0.999-0.319-1.523
						c0.055-0.383,0.205-0.745,0.292-1.122c0.086-0.377,0.1-0.796-0.1-1.127c0.351-0.271,0.855-0.257,1.257-0.07
						c0.402,0.187,0.754,0.476,1.168,0.636c0.738,0.285,1.579,0.125,2.305-0.189c0.726-0.314,1.381-0.771,2.096-1.11
						c0.715-0.339,1.533-0.556,2.296-0.348c0,0,0.878,1.064,1.97,1.318c0.968,0.225,6.164,1.796,7.635,3.371
						c0.21,0.225,0.032,0.592-0.275,0.588L198.031,175.369z"/>
				</g>
				<g>
					<path style="fill:#6376BF;" d="M205.628,168.845l-5.043,0.932l-1.049,0.191l-2.151,0.392
						c-6.442-18.891-7.533-29.201-7.533-29.201s-30.97-10.627-33.799-18.976c-2.818-8.339,5.171-14.95,5.171-14.95h17.98
						l-1.918,9.61l21.116,15.363c1.409,1.017,2.331,2.553,2.585,4.27L205.628,168.845z"/>
					<g style="opacity:0.5;">
						<path style="fill:#6376BF;" d="M200.584,169.777l-1.049,0.191c-2.734-12.397-6.855-29.974-7.915-31.5
							c-0.53-0.763-5.69-3.263-10.669-5.69c-11.284-5.478-20.014-9.896-21.233-12.672c-1.685-3.825,2.003-10.161,3.783-12.873h1.271
							c-1.43,2.119-5.669,8.826-4.09,12.439c1.165,2.649,12.471,8.148,20.735,12.163c6.633,3.21,10.415,5.086,11.072,6.029
							C193.92,139.92,199.101,163.071,200.584,169.777z"/>
					</g>
					<path style="opacity:0.5;fill:#6376BF;" d="M189.856,141.157c0,0,3.113-4.183,4.301-4.05
						C195.345,137.24,191.784,140.704,189.856,141.157z"/>
				</g>
			</g>
		</g>
		<g>
			<g>
				<polygon style="fill:#FFB894;" points="165.895,73.569 169.265,75.37 173.072,75.03 175.161,64.769 167.984,63.308 				"/>
				<path style="fill:#F29272;" d="M174.065,70.154c0,0-3.799-0.821-5.018-2.868c0,0,1.125,4.683,4.547,5.18L174.065,70.154z"/>
			</g>
			<g>
				<g>
					<g>
						<path style="fill:#FFB894;" d="M196.378,105.286c0,0,6.969-1.098,9.582,1.374c0,0,0.998,0.643,1.312,1.515
							c0,0-7.423,2.665-10.283,1.628C194.128,108.766,196.378,105.286,196.378,105.286z"/>
					</g>
					<path style="fill:#FFB894;" d="M197.517,105.152l-22.319-1.333c0,0,3.249-8.316,4.004-17.75
						c0.755-9.434-6.142-8.353-6.142-8.353c-6.721,1.079-6.151,26.601-6.151,26.601s-0.393,6.746,6.993,6.803
						c7.386,0.057,23.774-1.151,23.774-1.151L197.517,105.152z"/>
				</g>
				<path style="fill:#F05956;" d="M166.526,90.731c0,0,1.259-8.867,4.056-12.947c0.796-1.161,2.255-1.657,3.589-1.209
					c2.241,0.752,5.764,2.506,6.157,6.163c0.581,5.41-1.698,12.134-1.698,12.134L166.526,90.731z"/>
			</g>
			<g>
				<path style="fill:#FFB894;" d="M161.862,106.548c0,0-3.088-26.19-0.851-28.735c2.031-2.311,4.857-4.179,4.857-4.179h7.324
					c0,0,8.575,6.502,8.407,12.005c-0.08,2.614-2.233,7.537-2.904,11.985c-0.741,4.915-0.002,9.25-0.002,9.25L161.862,106.548z"/>
				<path style="fill:#F05956;" d="M181.184,89.423c-0.032,0.127-0.064,0.307-0.106,0.54c-0.106,0.636-0.244,1.653-0.392,2.871
					c-0.625,5.255-1.483,14.399-1.483,14.399h-17.98c0,0-1.346-19.05-1.187-26.287c0.042-1.494,0.604-2.946,1.621-4.047
					c0.615-0.667,1.388-1.377,2.225-1.822c0.042-0.032,0.095-0.053,0.138-0.074c0,0,0.297,0.307,0.816,0.752
					c2.055,1.769,7.544,5.615,10.383-0.752c0,0,4.747,4.842,5.965,7.406C182.413,84.973,181.682,87.484,181.184,89.423z"/>
				<path style="opacity:0.5;fill:#F05956;" d="M181.078,89.963c-0.106,0.636-0.244,1.653-0.392,2.871
					c-1.007,0.477-2.151,0.72-3.02,0.763c-0.127,0.011-0.297-0.021-0.328-0.138c-0.021-0.085,0.042-0.17,0.095-0.244
					c0.519-0.625,1.155-1.144,1.791-1.664C179.701,91.171,180.4,90.398,181.078,89.963z"/>
				<g style="opacity:0.5;">
					<polygon style="fill:#F05956;" points="164.709,75.141 164.38,74.717 164.391,74.717 					"/>
				</g>
			</g>
			<g>
				<path style="fill:#FFB894;" d="M196.559,109.399c-0.277-0.884-1.247-1.569-1.247-1.569c-2.089-2.15-7.292-1.95-8.972-1.824
					l-21.526-2.194c0,0,1.388-3.168,2.723-7.819c0.201-0.71,0.403-1.451,0.593-2.225c0.583-2.31,1.102-4.863,1.43-7.523
					c1.144-9.398-5.785-8.603-5.785-8.603c-2.998,0.36-4.768,5.584-5.806,11.284c-0.18,0.975-0.339,1.96-0.466,2.935
					c-0.879,6.219-0.996,12.1-0.996,12.1s-0.678,6.717,6.696,7.088c7.385,0.371,23.807-0.148,23.807-0.148l0.001-0.096
					C190.232,111.369,196.559,109.399,196.559,109.399z"/>
				<path style="opacity:0.5;fill:#FFB894;" d="M168.131,93.767c-0.191,0.774-0.392,1.515-0.593,2.225
					c-0.964-0.403-1.897-0.869-2.829-1.303c-2.087-0.975-4.228-1.844-6.41-2.596c-0.222-0.074-0.509-0.148-0.795-0.233
					c0.127-0.975,0.286-1.96,0.466-2.935c0.042-0.011,0.095,0,0.138,0c1.579,0.063,3.158,0.286,4.694,0.667
					c0.943,0.233,1.875,0.53,2.681,1.07c1.07,0.71,1.822,1.801,2.511,2.871C168.046,93.608,168.089,93.682,168.131,93.767z"/>
				<path style="fill:#F05956;" d="M156.584,90.255c0,0,1.631-8.806,4.598-12.765c0.844-1.126,2.323-1.56,3.637-1.057
					c2.208,0.846,5.654,2.746,5.892,6.417c0.353,5.43-2.207,12.052-2.207,12.052L156.584,90.255z"/>
				<path style="opacity:0.5;fill:#FFB894;" d="M164.815,103.812c0,0-4.765,2.172-3.904,2.437
					C161.771,106.513,164.815,103.812,164.815,103.812z"/>
			</g>
			<g>
				
					<rect x="181.775" y="110.856" transform="matrix(0.9977 0.068 -0.068 0.9977 8.064 -12.9356)" style="fill:#B4CBDD;" width="24.765" height="2.4"/>
				
					<rect x="194.697" y="111.717" transform="matrix(0.9977 0.068 -0.068 0.9977 8.1512 -13.7916)" style="fill:#8BA9C2;" width="24.196" height="2.4"/>
				<g>
					<path style="fill:#B4CBDD;" d="M218.947,112.541l-24.14-1.644l1.206-17.713c0.025-0.37,0.346-0.649,0.715-0.624l22.8,1.553
						c0.37,0.025,0.649,0.345,0.624,0.715L218.947,112.541z"/>
					<path style="opacity:0.5;fill:#B4CBDD;" d="M220.155,94.825l-0.089,1.3c0.025-0.37-0.261-0.687-0.631-0.712l-22.791-1.552
						c-0.37-0.025-0.697,0.25-0.722,0.62l0.089-1.3c0.025-0.37,0.352-0.645,0.722-0.62l22.791,1.552
						C219.894,94.138,220.181,94.455,220.155,94.825z"/>
				</g>
				<path style="fill:#FFFFFF;" d="M209.039,103.148c-0.059,0.868-0.811,1.524-1.679,1.465c-0.868-0.059-1.524-0.811-1.464-1.679
					c0.059-0.868,0.811-1.524,1.679-1.465C208.443,101.528,209.099,102.28,209.039,103.148z"/>
				
					<rect x="181.817" y="111.278" transform="matrix(0.9977 0.068 -0.068 0.9977 8.05 -13.3597)" style="opacity:0.5;fill:#8BA9C2;" width="37.148" height="0.727"/>
				<g>
					<g>
						
							<rect x="195.455" y="111.865" transform="matrix(0.9977 0.068 -0.068 0.9977 8.0797 -13.2165)" style="fill:#354F5C;" width="5.701" height="0.575"/>
						
							<rect x="202.12" y="112.18" transform="matrix(0.9977 0.0679 -0.0679 0.9977 8.1084 -13.525)" style="fill:#354F5C;" width="1.625" height="0.575"/>
					</g>
					<g>
						
							<rect x="191.767" y="111.475" transform="matrix(0.9977 0.068 -0.068 0.9977 8.0448 -12.8355)" style="fill:#354F5C;" width="1.625" height="0.575"/>
						<path style="fill:#354F5C;" d="M182.963,111.108c-0.011,0.158-0.148,0.278-0.306,0.267c-0.158-0.011-0.278-0.148-0.267-0.306
							s0.148-0.278,0.306-0.267C182.854,110.812,182.974,110.949,182.963,111.108z"/>
					</g>
				</g>
			</g>
		</g>
		<g>
			<g>
				<path style="fill:#FFB894;" d="M179.993,56.463c-2.659-2.95-7.494-3.005-10.023-2.8c-1.029,0.083-1.954,0.728-2.439,1.715
					c-0.39,0.798-0.819,1.641-1.175,2.527c-0.189-0.001-0.389,0.036-0.601,0.136c-1.01,0.479-1.1,2.676-0.134,4.014
					c0.07,0.709,0.251,1.436,0.598,2.183c2.129,4.587,9.304,7.335,11.513,5.638c0.554-0.428,1.055-1.539,1.499-2.967
					c0.262-0.858,0.507-1.825,0.725-2.832c0.585-2.699,0.564-3.498,0.772-5.118C180.845,58.042,180.583,57.12,179.993,56.463z"/>
				<g>
					<path style="fill:#F29272;" d="M170.436,63.646c-0.166,0.813,0.359,1.606,1.172,1.771c0.813,0.166,1.606-0.359,1.772-1.172
						c0.165-0.813-0.359-1.606-1.172-1.772C171.395,62.308,170.602,62.833,170.436,63.646z"/>
					<path style="fill:#F29272;" d="M178.46,65.278c-0.136,0.67,0.196,1.331,0.776,1.633c0.262-0.858,0.507-1.825,0.725-2.832
						C179.249,64.06,178.607,64.553,178.46,65.278z"/>
					<path style="fill:#F29272;" d="M177.176,60.942c-0.288,0.314-0.428,0.758-0.455,1.19c-0.032,0.436,0.039,0.867,0.148,1.277
						c0.059,0.208,0.135,0.401,0.153,0.56c0.026,0.156-0.022,0.3-0.121,0.439c-0.2,0.277-0.607,0.39-1.025,0.354
						c0.357,0.205,0.905,0.229,1.272-0.13c0.182-0.162,0.294-0.437,0.278-0.695c-0.018-0.255-0.1-0.45-0.144-0.641
						c-0.11-0.385-0.191-0.774-0.227-1.165C177.021,61.739,177.046,61.344,177.176,60.942z"/>
					<path style="fill:#523329;" d="M175.675,60.364c-0.131-0.185-0.303-0.288-0.499-0.356c-0.196-0.062-0.408-0.084-0.618-0.071
						c-0.211,0.007-0.42,0.08-0.596,0.185c-0.184,0.097-0.32,0.252-0.435,0.404c-0.04,0.052-0.03,0.126,0.022,0.166
						c0.039,0.03,0.09,0.031,0.131,0.008l0.012-0.007c0.149-0.085,0.29-0.161,0.437-0.202c0.145-0.048,0.292-0.055,0.437-0.048
						c0.296,0.01,0.556,0.18,0.882,0.221l0.044,0.006c0.107,0.014,0.204-0.062,0.218-0.168
						C175.715,60.451,175.702,60.403,175.675,60.364z"/>
					<path style="fill:#523329;" d="M177.972,61.178c0.316,0.089,0.622,0.035,0.898,0.141c0.136,0.05,0.268,0.114,0.383,0.215
						c0.119,0.095,0.22,0.221,0.323,0.357l0.008,0.011c0.039,0.052,0.114,0.062,0.166,0.023c0.039-0.03,0.055-0.079,0.043-0.123
						c-0.047-0.185-0.111-0.381-0.242-0.542c-0.121-0.166-0.284-0.315-0.476-0.404c-0.189-0.094-0.393-0.156-0.597-0.176
						c-0.207-0.014-0.405,0.014-0.598,0.133c-0.092,0.056-0.12,0.176-0.064,0.268c0.027,0.043,0.067,0.072,0.113,0.085
						L177.972,61.178z"/>
					<path style="fill:#F29272;" d="M176.056,66.14c-0.516-0.118-0.981-0.238-1.326-0.501c-0.175-0.125-0.316-0.29-0.424-0.492
						c-0.119-0.199-0.188-0.433-0.29-0.685c-0.076,0.254-0.102,0.535-0.02,0.808c0.062,0.277,0.244,0.535,0.477,0.711
						c0.237,0.173,0.516,0.27,0.791,0.29C175.537,66.292,175.812,66.257,176.056,66.14z"/>
					<path style="fill:#523329;" d="M174.508,62.049c-0.095,0.469,0.054,0.894,0.333,0.951c0.28,0.057,0.584-0.277,0.679-0.745
						c0.095-0.468-0.054-0.894-0.334-0.951C174.907,61.247,174.603,61.581,174.508,62.049z"/>
					<path style="fill:#523329;" d="M178.104,62.781c-0.095,0.468,0.054,0.894,0.333,0.951c0.279,0.057,0.583-0.277,0.679-0.745
						c0.095-0.468-0.054-0.894-0.333-0.951C178.503,61.979,178.199,62.313,178.104,62.781z"/>
					<path style="fill:#F29272;" d="M166.097,60.096c0.138-0.169,0.35-0.222,0.539-0.204c0.191,0.015,0.356,0.117,0.499,0.243
						c0.278,0.267,0.498,0.63,0.665,0.991c0.041,0.09,0.147,0.129,0.237,0.088c0.083-0.038,0.122-0.132,0.096-0.217
						c-0.099-0.315-0.369-0.503-0.623-0.604c-0.13-0.052-0.268-0.085-0.421-0.086c-0.15-0.002-0.327,0.047-0.446,0.169
						c-0.235,0.243-0.234,0.592-0.09,0.837c0.147,0.242,0.389,0.377,0.628,0.443c-0.204-0.142-0.388-0.316-0.459-0.525
						c-0.075-0.195-0.015-0.436,0.119-0.535c0.122-0.102,0.338-0.066,0.537,0.021c0.198,0.082,0.358,0.227,0.415,0.391l0.333-0.13
						c-0.197-0.402-0.445-0.776-0.823-1.054c-0.187-0.135-0.431-0.225-0.669-0.197C166.402,59.749,166.17,59.886,166.097,60.096z"/>
				</g>
				<g>
					<path style="fill:#523329;" d="M179.42,66.276c0.31-1.009,1.01-4.771,1.01-4.771c-2.233,0.321-7.899-1.785-7.899-1.785
						c-0.331-0.306-0.513-2.53-0.513-2.53c-0.144,0.987-0.328,1.827-0.795,2.617c-0.207,0.355-0.47,0.703-0.81,1.044
						c-0.494,0.497-1.662,0.255-1.961-0.46c-0.392-0.926-1.477-2.604-2.405-1.537c-1.456,1.667,0.394,3.745,1.9,4.658l-0.992,4.841
						c-1.004-1.916-2.137-3.757-2.644-5.859c-0.507-2.103-0.51-4.391,0.396-6.356c0.257-0.557,0.605-1.103,1.136-1.41
						c0.318-0.184,0.691-0.272,1.057-0.249c0.114-0.871,0.669-1.619,1.44-2.041c0.771-0.421,1.652-0.585,2.519-0.727
						c1.537-0.253,3.112-0.46,4.648-0.202c1.096,0.184,2.141,0.601,3.125,1.118c0.991,0.521,1.951,1.17,2.582,2.095
						c0.64,0.938,0.893,2.09,0.982,3.222c0.149,1.908-0.134,3.849-0.824,5.635C180.957,64.659,180.42,65.695,179.42,66.276z"/>
				</g>
				<path style="fill:#523329;" d="M168.423,52.448c-0.015-0.713-0.261-1.445-0.786-1.927c-0.413-0.379-0.959-0.576-1.499-0.725
					c-1.631-0.449-3.485-0.514-4.91,0.398c-0.948,0.606-1.605,1.583-2.06,2.612c-1.094,2.473-1.136,5.273-1.006,7.975
					s0.409,5.435-0.103,8.091c-0.103,0.534-0.229,1.126,0.052,1.592c0.28,0.466,0.87,0.635,1.41,0.698
					c1.79,0.208,3.759-0.427,4.767-1.92c1.062-1.573,0.859-3.635,0.841-5.532c-0.012-1.278,0.079-2.556,0.272-3.819
					c0.203-1.329,0.548-2.69,1.276-3.835c0.353-0.556,0.95-0.917,1.296-1.438C168.335,54.07,168.436,53.085,168.423,52.448z"/>
			</g>
		</g>
	</g>
	<g>
		<g>
			<path style="fill:#C42927;" d="M141.054,380.251H52.797v-39.283c0-2.339,1.896-4.236,4.236-4.236h79.786
				c2.339,0,4.236,1.896,4.236,4.236V380.251z"/>
			<g>
				<path style="fill:#DE3835;" d="M170.183,380.251H61.869v-38.826c0-2.591,2.101-4.692,4.692-4.692h98.93
					c2.592,0,4.692,2.101,4.692,4.692V380.251z"/>
				<path style="opacity:0.5;fill:#DE3835;" d="M170.187,341.421v2.119c0-2.585-2.109-4.694-4.694-4.694H66.565
					c-2.596,0-4.694,2.108-4.694,4.694v-2.119c0-2.585,2.098-4.694,4.694-4.694h98.928
					C168.078,336.727,170.187,338.836,170.187,341.421z"/>
			</g>
		</g>
		<g>
			<g>
				<rect x="56.86" y="410.791" style="fill:#C42927;" width="146.172" height="7.876"/>
				<rect x="56.86" y="410.791" style="fill:#B31E1D;" width="39.416" height="7.876"/>
			</g>
			<rect x="56.86" y="410.791" style="opacity:0.4;fill:#C42927;" width="146.172" height="3.938"/>
		</g>
		<g>
			<g>
				<path style="fill:#E3433F;" d="M90.267,356.593v55.784H52.802v-55.784c0-0.127,0.021-0.254,0.053-0.371
					c0.159-0.593,0.699-1.038,1.346-1.038h34.657C89.631,355.184,90.267,355.82,90.267,356.593z"/>
				<path style="opacity:0.3;fill:#E3433F;" d="M75.497,412.377H52.802v-55.784c0-0.127,0.021-0.254,0.053-0.371
					C53.236,370.272,56.001,411.159,75.497,412.377z"/>
			</g>
			<g>
				<path style="fill:#E3433F;" d="M207.09,356.593v55.784h-37.465v-55.784c0-0.773,0.636-1.409,1.409-1.409h34.657
					C206.465,355.184,207.09,355.82,207.09,356.593z"/>
				<path style="opacity:0.4;fill:#E3433F;" d="M207.09,371.85v40.527h-37.465v-55.784c0-0.773,0.636-1.409,1.409-1.409h1.473
					C173.28,362.06,178.027,381.778,207.09,371.85z"/>
			</g>
			<g>
				<path style="fill:#F05956;" d="M205.688,355.188h-13.354v24.658H90.263v-23.25c0-0.777-0.63-1.407-1.407-1.407H75.502v57.194
					h14.761h102.071h14.761v-55.787C207.095,355.818,206.465,355.188,205.688,355.188z"/>
				<polygon style="opacity:0.5;fill:#F05956;" points="191.028,379.845 191.028,399.941 91.644,399.941 91.644,379.845 
					90.263,379.845 90.263,412.382 91.644,412.382 91.644,401.323 191.028,401.323 191.028,412.382 192.327,412.382 
					192.327,379.845 				"/>
				<rect x="75.502" y="355.188" style="opacity:0.5;fill:#F05956;" width="0.985" height="57.194"/>
				<rect x="192.327" y="355.741" style="opacity:0.5;fill:#F05956;" width="0.985" height="56.628"/>
				<rect x="91.644" y="379.845" style="opacity:0.5;fill:#F05956;" width="99.384" height="1.615"/>
				<path style="opacity:0.2;fill:#F05956;" d="M91.644,383.306v16.636h99.384C191.028,399.941,93.025,401.309,91.644,383.306z"/>
			</g>
		</g>
	</g>
	<g>
		<g>
			<rect x="25.502" y="417.861" style="fill:#DFE9F0;" width="422.971" height="3.179"/>
		</g>
		<g>
			<path style="fill:#DFE9F0;" d="M420.891,194.996c-0.729,0-1.424,0.143-2.063,0.395c-1.872-3.497-5.558-5.877-9.802-5.877
				c-3.748,0-7.055,1.861-9.068,4.702c-0.733-0.268-1.52-0.422-2.346-0.422c-3.774,0-6.834,3.06-6.834,6.834
				c0,0.706,0.107,1.387,0.306,2.027h7.021h6.034h11.502h4.305h6.194c0.243-0.63,0.382-1.312,0.382-2.027
				C426.523,197.517,424.001,194.996,420.891,194.996z"/>
			<path style="fill:#DFE9F0;" d="M358.722,108.076c-0.089,0-0.177,0.006-0.264,0.013c-1.094-4.988-5.533-8.724-10.85-8.724
				c-3.593,0-6.779,1.713-8.811,4.359c-0.321-0.046-0.646-0.078-0.98-0.078c-3.774,0-6.834,3.059-6.834,6.834
				c0,0.706,0.107,1.387,0.306,2.028h5.398h7.657h11.341h2.843h3.23c0.141-0.364,0.221-0.759,0.221-1.173
				C361.98,109.534,360.521,108.076,358.722,108.076z"/>
			<path style="fill:#DFE9F0;" d="M107.928,214.688c-0.089,0-0.177,0.006-0.264,0.013c-1.094-4.988-5.533-8.724-10.85-8.724
				c-3.594,0-6.78,1.713-8.811,4.359c-0.321-0.046-0.646-0.078-0.98-0.078c-3.774,0-6.834,3.059-6.834,6.834
				c0,0.706,0.107,1.387,0.306,2.028h5.398h7.657h11.341h2.843h3.23c0.141-0.364,0.221-0.759,0.221-1.173
				C111.186,216.147,109.727,214.688,107.928,214.688z"/>
		</g>
	</g>
	<g>
		<path style="fill:#DFE9F0;" d="M188.357,430.527c0,2.132-7.292,2.343-33.99,2.343c-26.698,0-47.81,0.675-47.81-1.457
			c0-2.132,6.762-4.746,33.46-4.746S188.357,428.395,188.357,430.527z"/>
		<g>
			<g>
				<g>
					<g>
						<path style="fill:#FFB894;" d="M130.581,386.525l-4.344-3.952l-4.588-4.174l-8.407-7.653
							c-2.852,4.14-5.861,8.316-9.045,12.272c3.529,2.118,7.403,4.458,10.47,6.326c0.975,0.593,1.865,1.134,2.638,1.611
							c0.276,0.169,0.53,0.35,0.773,0.561c1.388,1.155,2.278,2.808,2.437,4.63c1.377,15.554,4.016,33.142,4.016,33.142l7.83-0.413
							c0,0,0,0,0.011,0l0.244-0.011l-1.356-40.876C131.238,387.425,130.995,386.896,130.581,386.525z"/>
						<path style="opacity:0.5;fill:#FFB894;" d="M132.616,428.863l-0.244,0.011c-0.011,0-0.011,0-0.011,0
							c-0.275-0.106-0.445-0.297-0.456-0.615c-0.063-1.516-1.844-21.658-2.748-31.826c-0.248-2.785-2.737-4.841-5.515-4.522
							c-2.402,0.275-4.276-0.022-5.564-0.396c-0.244-0.212-0.498-0.392-0.773-0.561c-0.773-0.477-1.663-1.017-2.638-1.611
							l11.57-6.77l4.344,3.952c0.413,0.371,0.657,0.901,0.678,1.462L132.616,428.863z"/>
					</g>
					<path style="fill:#143C4A;" d="M123.817,430.4c-0.12-0.01-0.233-0.077-0.288-0.183c-0.245-0.469-0.322-1.024-0.21-1.542
						c0.082-0.378,0.258-0.729,0.371-1.099c0.113-0.37,0.157-0.787-0.02-1.132c0.37-0.246,0.871-0.195,1.259,0.02
						c0.388,0.215,0.718,0.528,1.12,0.717c0.715,0.337,1.566,0.236,2.312-0.025c0.746-0.262,1.432-0.672,2.169-0.958
						s1.569-0.446,2.315-0.184c0,0,0.8,1.124,1.871,1.454c0.95,0.293,6.021,2.229,7.376,3.904c0.193,0.239-0.01,0.593-0.316,0.567
						L123.817,430.4z"/>
				</g>
				<g>
					<g>
						<path style="fill:#FFB894;" d="M146.167,375.092l-0.403-3.74c-0.074-0.763-0.646-1.367-1.388-1.515l-27.059-5.072
							c-0.286,0.421-0.577,0.84-0.861,1.261c-2.717,4.035-5.587,8.223-8.618,12.292c0.135,0,0.261,0.006,0.397,0.005
							c2.479-0.032,7.427-0.223,13.414,0.074c3.147,0.148,6.59,0.434,10.097,0.943c0.339,0.053,0.667,0.106,1.007,0.159
							c0.138,0.021,0.265,0.042,0.403,0.053c0.89,0.138,1.812,0.275,2.744,0.392c0.117,0.593,0.233,1.176,0.35,1.748
							c0.413,2.056,0.827,4.037,1.229,5.933c2.331,10.913,4.344,18.838,4.344,18.838l8.01,2.532L146.167,375.092z"/>
						<path style="opacity:0.5;fill:#FFB894;" d="M149.833,408.997l-2.753-18.973c-0.505-3.483-4.354-5.369-7.417-3.635
							l-2.184,1.237c-0.403-1.897-0.816-3.878-1.229-5.933l9.917-6.601L149.833,408.997z"/>
					</g>
					<path style="fill:#143C4A;" d="M140.2,407.429c-0.117-0.026-0.221-0.107-0.262-0.219c-0.181-0.497-0.185-1.058-0.007-1.556
						c0.13-0.364,0.351-0.689,0.511-1.041s0.258-0.76,0.128-1.124c0.398-0.195,0.889-0.08,1.245,0.184
						c0.357,0.264,0.643,0.617,1.016,0.857c0.665,0.428,1.522,0.439,2.296,0.277c0.774-0.162,1.508-0.478,2.276-0.666
						c0.768-0.188,1.614-0.237,2.319,0.121c0,0,0.647,1.219,1.665,1.686c0.903,0.415,5.678,2.997,6.802,4.836
						c0.16,0.262-0.087,0.587-0.387,0.521L140.2,407.429z"/>
				</g>
			</g>
			<g>
				<g>
					<polygon style="fill:#FFB894;" points="96.344,326.453 103.731,328.909 103.668,315.36 96.344,315.36 					"/>
					<path style="fill:#F29272;" d="M103.668,320.855c0,0-3.886-0.046-5.489-1.81c0,0,2.036,4.364,5.489,4.168V320.855z"/>
				</g>
				<path style="fill:#FFB894;" d="M130.952,367.39c-0.088-0.959-0.924-1.867-0.924-1.867c-1.486-2.374-5.951-3.371-8.1-3.722
					l-22.105-7.17c0,0,5.63-7.454,8.663-16.811c2.791-8.608-3.997-10.007-3.997-10.007c-7.043-0.67-13.135,25.154-13.135,25.154
					s-2.157,6.684,5.258,8.671c7.415,1.987,24.217,5.051,24.217,5.051l0.001-0.003C123.925,368.026,130.952,367.39,130.952,367.39z"
					/>
				<g>
					<path style="fill:#143C4A;" d="M148.106,379.214c0,0-15.077,9.027-26.668,11.538c-0.371,0.085-0.731,0.159-1.091,0.223
						c-2.49,0.456-4.778,0.583-6.675,0.201c0,0-23.415-10.775-25.206-19.983c-1.791-9.197,2.914-11.485,2.914-16.009
						c0-4.514-5.107-25.312,4.969-29.349c0,0,0.223,0.127,0.593,0.307c0.254,0.138,0.593,0.297,0.964,0.477h0.011
						c2.236,1.007,6.018,2.278,5.753-0.784c0,0,5.541,4.058,7.989,9.186c0,0,1.335,1.896,0.424,5.075
						c-0.784,2.712-3.751,12.089-2.416,18.076c0.233,1.038,0.604,1.981,1.134,2.765c0.466,0.689,1.314,1.303,2.469,1.865
						c7.735,3.793,28.745,5.022,31.351,6.209C147.619,370.378,148.106,379.214,148.106,379.214z"/>
					<g style="opacity:0.5;">
						<path style="fill:#143C4A;" d="M121.438,390.752c-0.371,0.085-0.731,0.159-1.091,0.223c-2.32-3.677-9.387-7.862-15.692-11.602
							c-4.079-2.416-7.936-4.704-10.182-6.654c-2.829-2.458-3.528-6.633-2.024-12.057c1.123-4.016,1.589-7.893,1.388-11.517
							c-0.572-10.246,2.395-20.682,3.104-23.002c0.254,0.138,0.593,0.297,0.964,0.477c-0.773,2.564-3.56,12.619-3.009,22.462
							c0.201,3.74-0.275,7.735-1.42,11.867c-0.975,3.486-1.473,8.222,1.695,10.977c2.172,1.886,5.986,4.143,10.023,6.537
							C112.082,382.541,119.192,386.758,121.438,390.752z"/>
					</g>
					<path style="opacity:0.5;fill:#143C4A;" d="M113.269,362.802c-0.074,0.297-0.191,0.572-0.413,0.773
						c-0.254,0.244-0.593,0.339-0.932,0.434c-3.719,1.07-7.459,2.151-11.316,2.585c-0.562,0.064-1.144,0.117-1.674-0.074
						c-0.53-0.191-0.996-0.689-0.964-1.261c0.032-0.519,0.445-0.922,0.837-1.271c1.06-0.932,2.151-1.822,3.285-2.67
						c1.716-1.282,3.592-2.5,5.711-2.808c0.466-0.064,1.155-0.223,1.865-0.339c0.233,1.038,0.604,1.981,1.134,2.765
						C111.266,361.626,112.114,362.24,113.269,362.802z"/>
				</g>
				<g>
					<rect x="112.683" y="367.39" style="fill:#B4CBDD;" width="24.765" height="2.4"/>
					<rect x="125.635" y="367.39" style="fill:#8BA9C2;" width="24.196" height="2.4"/>
					<g>
						<path style="fill:#B4CBDD;" d="M149.831,367.39h-24.196v-17.754c0-0.371,0.301-0.671,0.671-0.671h22.853
							c0.371,0,0.671,0.301,0.671,0.671V367.39z"/>
						<path style="opacity:0.5;fill:#B4CBDD;" d="M149.833,349.632v1.303c0-0.371-0.307-0.668-0.678-0.668h-22.843
							c-0.371,0-0.678,0.297-0.678,0.668v-1.303c0-0.371,0.307-0.667,0.678-0.667h22.843
							C149.526,348.965,149.833,349.261,149.833,349.632z"/>
					</g>
					<circle style="fill:#FFFFFF;" cx="137.733" cy="358.691" r="1.575"/>
					<rect x="112.683" y="367.39" style="opacity:0.5;fill:#8BA9C2;" width="37.148" height="0.727"/>
					<g>
						<g>
							<rect x="126.36" y="368.117" style="fill:#354F5C;" width="5.701" height="0.575"/>
							<rect x="133.036" y="368.117" style="fill:#354F5C;" width="1.625" height="0.575"/>
						</g>
						<g>
							<rect x="122.66" y="368.117" style="fill:#354F5C;" width="1.625" height="0.575"/>
							<path style="fill:#354F5C;" d="M113.834,368.405c0,0.159-0.129,0.288-0.288,0.288s-0.287-0.129-0.287-0.288
								c0-0.159,0.129-0.288,0.287-0.288S113.834,368.246,113.834,368.405z"/>
						</g>
					</g>
				</g>
				<g>
					<path style="fill:#FFB894;" d="M122.804,367.39c0,0-1.674,0.148-3.74,0.148c-2.183,0-4.789-0.159-6.378-0.848
						c0,0-16.804-3.062-24.221-5.054c-7.417-1.981-5.255-8.667-5.255-8.667s6.092-25.831,13.138-25.153c0,0,7.215,0.71,3.994,10.002
						c-3.221,9.292-8.667,16.815-8.667,16.815l1.06,0.35l9.907,3.21c0.021,0,0.032,0.011,0.053,0.011l11.083,3.602
						c2.151,0.35,6.622,1.346,8.105,3.719C121.883,365.525,122.72,366.436,122.804,367.39z"/>
					<path style="opacity:0.5;fill:#FFB894;" d="M92.735,354.983c-1.208,0.297-3.677,0.858-3.867,0.583
						c-0.275-0.36,2.808-0.932,2.808-0.932L92.735,354.983z"/>
				</g>
			</g>
			<g>
				<path style="fill:#FFB894;" d="M107.964,308.557c-0.068-0.923-0.509-1.774-1.218-2.3c-3.194-2.36-7.943-1.449-10.38-0.744
					c-0.992,0.286-1.77,1.103-2.048,2.167c-0.223,0.86-0.475,1.772-0.647,2.711c-0.185,0.037-0.374,0.113-0.561,0.253
					c-0.895,0.671-0.544,2.841,0.67,3.96c0.21,0.681,0.533,1.357,1.022,2.02c3.001,4.07,10.581,5.331,12.407,3.228
					c0.457-0.53,0.727-1.719,0.876-3.206c0.086-0.893,0.132-1.89,0.145-2.92C108.263,310.964,108.083,310.186,107.964,308.557z"/>
				<g>
					<path style="fill:#F29272;" d="M98.814,315.202c0,0.829,0.672,1.502,1.502,1.502c0.829,0,1.502-0.672,1.502-1.502
						c0-0.83-0.673-1.502-1.502-1.502C99.486,313.7,98.814,314.373,98.814,315.202z"/>
					<path style="fill:#F29272;" d="M107.002,315.201c0,0.684,0.457,1.265,1.086,1.445c0.085-0.893,0.132-1.89,0.145-2.92
						C107.532,313.85,107.002,314.461,107.002,315.201z"/>
					<path style="fill:#F29272;" d="M104.879,311.208c-0.22,0.365-0.268,0.829-0.209,1.257c0.056,0.433,0.212,0.841,0.399,1.222
						c0.099,0.192,0.212,0.366,0.261,0.518c0.056,0.147,0.038,0.298-0.031,0.454c-0.141,0.311-0.517,0.503-0.934,0.552
						c0.39,0.13,0.933,0.044,1.221-0.381c0.146-0.195,0.201-0.487,0.134-0.737c-0.068-0.246-0.187-0.421-0.269-0.599
						c-0.185-0.356-0.342-0.72-0.455-1.096C104.886,312.02,104.831,311.628,104.879,311.208z"/>
					<path style="fill:#523329;" d="M103.392,310.468c-0.166-0.155-0.354-0.221-0.56-0.249c-0.204-0.021-0.417-0.001-0.62,0.053
						c-0.206,0.049-0.396,0.162-0.547,0.301c-0.161,0.131-0.263,0.311-0.345,0.483c-0.028,0.059-0.004,0.13,0.055,0.158
						c0.044,0.021,0.095,0.013,0.13-0.018l0.011-0.009c0.129-0.113,0.252-0.216,0.388-0.286c0.132-0.076,0.275-0.112,0.418-0.134
						c0.292-0.049,0.581,0.065,0.908,0.041l0.044-0.003c0.107-0.008,0.188-0.101,0.18-0.208
						C103.449,310.545,103.426,310.5,103.392,310.468z"/>
					<path style="fill:#523329;" d="M105.806,310.807c0.327,0.024,0.617-0.09,0.908-0.041c0.143,0.022,0.286,0.059,0.418,0.134
						c0.136,0.07,0.26,0.172,0.388,0.286l0.01,0.009c0.049,0.043,0.124,0.038,0.167-0.011c0.032-0.037,0.038-0.088,0.018-0.13
						c-0.083-0.172-0.185-0.351-0.345-0.483c-0.152-0.138-0.341-0.252-0.547-0.301c-0.204-0.054-0.416-0.075-0.62-0.053
						c-0.206,0.028-0.394,0.094-0.56,0.249c-0.078,0.074-0.082,0.197-0.009,0.275c0.035,0.037,0.08,0.057,0.127,0.061
						L105.806,310.807z"/>
					<path style="fill:#F29272;" d="M104.818,316.525c-0.529-0.013-1.009-0.037-1.399-0.226c-0.196-0.087-0.368-0.221-0.514-0.397
						c-0.157-0.171-0.271-0.386-0.42-0.613c-0.024,0.264,0.007,0.545,0.141,0.796c0.116,0.259,0.346,0.476,0.61,0.601
						c0.267,0.122,0.559,0.161,0.832,0.126C104.34,316.777,104.602,316.689,104.818,316.525z"/>
					<path style="fill:#523329;" d="M102.485,312.825c0,0.478,0.231,0.866,0.517,0.866c0.285,0,0.517-0.388,0.517-0.866
						c0-0.478-0.231-0.866-0.517-0.866C102.716,311.959,102.485,312.347,102.485,312.825z"/>
					<path style="fill:#523329;" d="M106.155,312.825c0,0.478,0.231,0.866,0.517,0.866s0.517-0.388,0.517-0.866
						c0-0.478-0.231-0.866-0.517-0.866S106.155,312.347,106.155,312.825z"/>
					<path style="fill:#F29272;" d="M93.854,312.589c0.101-0.193,0.299-0.288,0.488-0.308c0.19-0.023,0.372,0.043,0.538,0.139
						c0.325,0.206,0.614,0.518,0.849,0.839c0.058,0.08,0.17,0.097,0.25,0.038c0.074-0.054,0.093-0.154,0.05-0.232
						c-0.16-0.289-0.462-0.419-0.731-0.468c-0.138-0.025-0.28-0.029-0.43,0c-0.147,0.028-0.311,0.111-0.404,0.254
						c-0.182,0.285-0.111,0.627,0.079,0.838c0.193,0.208,0.456,0.292,0.704,0.309c-0.228-0.099-0.443-0.233-0.555-0.422
						c-0.112-0.176-0.102-0.424,0.01-0.548c0.099-0.124,0.318-0.132,0.53-0.086c0.211,0.041,0.396,0.151,0.485,0.3l0.3-0.193
						c-0.273-0.354-0.591-0.672-1.017-0.868c-0.21-0.095-0.467-0.135-0.695-0.06C94.083,312.189,93.883,312.369,93.854,312.589z"/>
				</g>
				<g>
					<path style="fill:#523329;" d="M108.074,309.805c-2.951,1.408-8.997-1.243-8.997-1.243c0.056,0.996,0.043,1.855-0.257,2.723
						c-0.133,0.389-0.321,0.782-0.586,1.184c-0.385,0.586-1.578,0.581-2.014-0.06c-0.569-0.829-1.967-2.257-2.663-1.026
						c-1.094,1.924,1.133,3.591,2.792,4.185l-0.005,10.263c0,0-2.757,1.195-5.001,5.597l-3.078,5.894
						c-0.784-0.88-1.244-2.155-1.35-3.329c-0.125-1.373,0.263-2.732,0.539-4.082c0.277-1.35,0.436-2.803-0.114-4.067
						c-0.272-0.626-0.704-1.17-1.021-1.775c-0.924-1.77-0.773-3.951-0.025-5.802c0.748-1.851,2.031-3.43,3.354-4.924
						c0.781-0.883,1.635-1.886,1.567-3.063c-0.156-2.721,1.21-5.394,3.483-6.899c2.273-1.505,5.29-1.817,7.823-0.81
						c0.743,0.296,1.444,0.696,2.205,0.94c1.063,0.341,2.224,0.373,3.229,0.858c1.206,0.582,2.049,1.784,2.367,3.085
						c0.319,1.301,0.152,2.686-0.285,3.952c-0.319,0.924-0.781,1.806-0.951,2.768c-0.332,1.88-0.246,3.845,0.553,5.579
						c0.784,1.699,2.366,3.015,2.784,4.839c0.166,0.725,0.132,1.483,0.023,2.219c-0.29,1.953-1.023,4.16-2.268,5.693l-6.45-6.625
						l-0.063-5.024c0,0,2.878,0.123,3.682-1.201C108.155,318.33,108.074,309.805,108.074,309.805z"/>
				</g>
			</g>
		</g>
	</g>
	<g>
		<path style="fill:#DFE9F0;" d="M364.013,436.099c0,1.728-9.476,3.128-34.928,3.128c-25.452,0-57.242-1.4-57.242-3.128
			s20.633-3.128,46.085-3.128C343.38,432.971,364.013,434.371,364.013,436.099z"/>
		<g>
			<g>
				<path style="fill:#E28758;" d="M294.669,366.841c-0.151,0.089-0.302,0.191-0.392,0.341c-0.09,0.151-0.099,0.362,0.022,0.488
					c0.11,0.115,0.285,0.128,0.443,0.142c0.563,0.053,1.116,0.219,1.615,0.486c-0.814,1.027-2.162,1.421-3.374,1.917
					c-0.31,0.127-0.678,0.391-0.568,0.708c0.095,0.275,0.467,0.309,0.756,0.275c0.708-0.085,1.403-0.287,2.046-0.596
					c-0.757,0.405-1.514,0.81-2.271,1.214c-0.231,0.124-0.502,0.338-0.417,0.586c0.067,0.196,0.315,0.253,0.522,0.266
					c1.099,0.069,2.218-0.223,3.142-0.82c-0.759,0.505-1.518,1.01-2.276,1.516c-0.093,0.062-0.193,0.133-0.223,0.24
					c-0.042,0.147,0.071,0.301,0.212,0.359c0.141,0.058,0.3,0.043,0.451,0.024c1.02-0.129,2.018-0.423,2.945-0.868
					c-0.298,0.293-0.595,0.585-0.893,0.878c-0.177,0.174-0.366,0.437-0.229,0.644c0.129,0.194,0.424,0.146,0.64,0.06
					c1.093-0.433,2.007-1.237,2.739-2.156c0.732-0.919,1.299-1.957,1.861-2.989c0.091-0.168,0.184-0.34,0.208-0.53
					c0.027-0.218-0.041-0.437-0.132-0.638c-0.311-0.687-0.889-1.229-1.546-1.6C298.303,365.86,296.312,365.872,294.669,366.841z"/>
				<g>
					<path style="fill:#FFFFFF;" d="M330.503,357.091c-2.988,3.444-28.872,13.7-28.872,13.7l-2.628-4.831l-0.307-0.572
						l23.903-14.198c0,0,6.728-22.928,8.624-25.471c0.053-0.064,0.106-0.127,0.17-0.191c2.034-2.31,7.703-1.462,9.462,1.812
						C342.656,330.688,333.481,353.648,330.503,357.091z"/>
					<path style="fill:#E6FAFF;" d="M331.393,325.528c-0.064,5.753-5.679,27.399-5.679,27.399l-26.711,13.032l-0.307-0.572
						l23.903-14.198c0,0,6.728-22.928,8.624-25.471C331.277,325.655,331.33,325.591,331.393,325.528z"/>
				</g>
			</g>
			<g>
				<g>
					<g>
						<path style="fill:#E28758;" d="M300.03,415.925l-1.554-5.998l7.172-1.25l-0.19,7.045
							C305.459,415.722,301.584,417.219,300.03,415.925z"/>
						<path style="fill:#FCC574;" d="M307.349,418.317c1.208-0.647-0.612-2.704-1.477-3.768c-0.12-0.148-0.434-0.098-0.622-0.067
							c-0.739,0.713-1.778,1.104-2.803,1.056c-0.337-0.016-0.677-0.079-0.977-0.232c-0.42-0.215-0.747-0.598-1.19-0.761
							c-0.417-0.154-0.894-0.089-1.292,0.109c-0.398,0.197-0.804,0.649-1.141,0.939c-1.612,1.381-3.424,2.527-5.362,3.393
							c-0.736,0.329-1.513,0.632-2.076,1.208c-0.563,0.577-0.844,1.524-0.405,2.2C290.005,422.392,305.724,419.188,307.349,418.317z
							"/>
					</g>
					<g>
						<path style="fill:#1B4F61;" d="M339.753,368.661c-0.169,0.244-0.413,0.498-0.72,0.742h-0.011
							c-2.564,2.056-9.546,4.079-16.497,5.7c-8.593,1.992-17.122,3.359-17.122,3.359c0.731,2.638,0.975,31.871,0.975,31.871
							l-1.187,0.18l-1.06,0.159l-5.965,0.901c0,0-7.682-37.179-6.622-40.463c0.837-2.585,24.284-11.03,34.202-14.494
							c2.681-0.932,4.365-1.504,4.365-1.504s6.951,4.641,9.377,9.048v0.011C340.378,365.779,340.654,367.358,339.753,368.661z"/>
						<path style="opacity:0.5;fill:#1B4F61;" d="M339.488,364.158v0.011c0,0.636-0.021,1.282-0.074,1.918
							c-0.01,0.191-0.021,0.392-0.042,0.583c-0.074,0.911-0.18,1.833-0.339,2.734h-0.011c-2.564,2.056-9.546,4.079-16.497,5.7
							c-0.053-0.064-0.074-0.127-0.085-0.212c-0.021-0.265,0.169-0.487,0.35-0.689c1.091-1.197,2.204-2.395,3.147-3.698h0.011
							c0.318-0.434,0.625-0.89,0.89-1.356c0.117-0.191,0.223-0.382,0.328-0.583c1.091-2.13,1.547-4.725,0.583-6.908
							c-0.731-1.685-2.267-3.189-2.013-5.012c0-0.01,0-0.021,0.011-0.032c2.681-0.932,4.365-1.504,4.365-1.504
							S337.062,359.751,339.488,364.158z"/>
						<g style="opacity:0.5;">
							<path style="fill:#1B4F61;" d="M339.562,366.616l-0.191,0.053l-13.424,3.836l-22.865,6.516
								c-0.826,0.244-1.367,1.038-1.271,1.897l3.38,31.595l-1.06,0.159l-3.38-31.637c-0.138-1.377,0.72-2.649,2.045-3.03
								l24.041-6.855l12.439-3.549l0.138,0.487L339.562,366.616z"/>
						</g>
					</g>
				</g>
				<g>
					<g>
						<path style="fill:#E28758;" d="M316.263,432.847l0.441-6.181l7.196,1.104l-2.428,6.616
							C321.473,434.387,317.323,434.569,316.263,432.847z"/>
						<path style="fill:#FCC574;" d="M322.436,437.449c1.352-0.228,0.282-2.758-0.197-4.042c-0.067-0.178-0.38-0.232-0.568-0.262
							c-0.928,0.44-2.037,0.479-2.994,0.106c-0.314-0.123-0.616-0.291-0.851-0.532c-0.33-0.338-0.517-0.805-0.885-1.101
							c-0.346-0.279-0.819-0.369-1.259-0.309c-0.44,0.06-0.969,0.359-1.381,0.525c-1.968,0.794-4.051,1.303-6.164,1.504
							c-0.802,0.077-1.635,0.116-2.353,0.483c-0.718,0.367-1.287,1.175-1.085,1.956
							C304.698,435.777,320.618,437.756,322.436,437.449z"/>
					</g>
					<g>
						<path style="fill:#1B4F61;" d="M355.222,374.637c-1.515,2.903-22.939,21.392-22.939,21.392
							c0.095,3.073-6.357,31.987-7.66,32.316c-0.275,0.064-0.816,0.053-1.505-0.011c-0.328-0.021-0.689-0.064-1.07-0.106
							c-2.723-0.339-6.474-1.081-6.474-1.081s2.013-31.775,4.556-37.147c2.543-5.361,13.615-19.209,13.615-19.209
							c-2.522-1.526-3.634-15.681-3.634-15.681l18.16,0.169l1.06,0.011l3.401,0.032c0,0,1.399,4.153,2.342,8.752
							c0.074,0.339,0.138,0.689,0.201,1.038C355.964,368.82,356.271,372.634,355.222,374.637z"/>
						<path style="opacity:0.5;fill:#1B4F61;" d="M355.275,365.112c-0.318,0.032-0.625,0.053-0.922,0.053
							c-0.848,0-1.611-0.159-2.289-0.445c-1.769,2.829-12.947,20.406-22.208,29.126c-0.434,0.403-0.71,0.911-0.816,1.473
							l-5.923,33.015c-0.328-0.021-0.689-0.064-1.07-0.106l5.954-33.1c0.138-0.784,0.53-1.494,1.123-2.056
							c9.133-8.593,20.173-25.927,22.006-28.872c-0.212-0.148-0.413-0.297-0.604-0.477c-2.257-2.183-2.384-6.251-2.257-8.444
							l1.06,0.011c-0.117,2.013-0.032,5.785,1.928,7.671c0.932,0.89,2.214,1.271,3.814,1.112
							C355.148,364.412,355.212,364.762,355.275,365.112z"/>
					</g>
				</g>
			</g>
			<g>
				<g>
					<polygon style="fill:#E28758;" points="345.475,321.904 337.38,324.013 336.723,320.972 336.236,318.736 335.155,313.767 
						342.243,311.923 					"/>
					<path style="fill:#C26144;" d="M340.982,315.717c0,0-1.102,4.503-4.259,5.255l-0.487-2.236
						C336.892,318.546,340.029,317.528,340.982,315.717z"/>
				</g>
				<g>
					<path style="fill:#E28758;" d="M354.391,332.643c-0.119-5.09-9.026-10.776-9.026-10.776h-1.037h-6.287h-1.037
						c0,0-8.907,5.686-9.026,10.776c-0.059,2.514,2.135,22.464,2.135,22.464l11.072-0.215l11.072,0.215
						C352.257,355.108,354.45,335.157,354.391,332.643z"/>
					<path style="fill:#FFFFFF;" d="M336.129,321.867c0,0,0.3,0.056,0.806,0.132c0.432,0.064,1.545,1.651,1.545,1.651
						s1.158-1.348,1.716-1.317c1.834,0.099,3.945,0.048,5.557-0.465c0,0,9.323,4.056,9.209,10.766
						c-0.114,6.71-2.706,22.474-2.706,22.474h-22.143c0,0-2.484-16.442-2.511-19.787
						C327.574,331.803,329.705,323.801,336.129,321.867z"/>
					<g>
						<g>
							<path style="fill:#FCC574;" d="M355.159,336.165c-0.265,4.323-2.426,19.156-2.426,19.156h-23.034
								c0,0-2.257-18.065-2.458-20.004c-0.064-0.646,0.106-2.045,0.583-3.708c0.943-3.316,3.083-7.66,6.887-9.186
								c0,0,0.625,8.974,0.848,9.197c0.222,0.223,7.311-8.317,12.661-8.752c0,0,4.376,3.274,5.52,4.948
								C354.894,329.501,355.423,331.843,355.159,336.165z"/>
							<path style="opacity:0.5;fill:#FCC574;" d="M341.925,355.322h-12.227c0,0-2.257-18.065-2.458-20.004
								c-0.064-0.646,0.106-2.045,0.583-3.708C329.179,338.2,333.12,352.588,341.925,355.322z"/>
						</g>
						<ellipse style="fill:#FFFFFF;" cx="348.603" cy="334.407" rx="4.662" ry="8.683"/>
					</g>
					<g>
						<path style="fill:#FFFFFF;" d="M338.48,323.65l-1.476-2.45c0,0-3,0.269-3.312,1.798l2.437-1.13L338.48,323.65z"/>
						<path style="fill:#FFFFFF;" d="M338.48,323.65c0,0,1.153-1.755,2.371-1.987c1.086-0.207,4.724-0.203,5.498-0.199
							c0.096,0,0.186,0.034,0.26,0.094l1.606,1.31c0.062,0.05,0.046,0.148-0.031,0.169c-0.79,0.212-3.991,1.051-5.447,1.107
							c-0.095,0.004-0.179-0.043-0.236-0.12c-0.286-0.382-1.185-1.527-1.651-1.5C340.293,322.557,338.48,323.65,338.48,323.65z"/>
						<path style="fill:#0C232B;" d="M336.539,322.178c0,0-0.352,3.169,0,3.546c0.352,0.376,1.643,0.774,2.239,0.41
							c0.596-0.364,2.073-3.609,2.073-3.609s-0.29,0.013-0.68,0.196c-0.392,0.184-1.691,0.93-1.691,0.93L336.539,322.178z"/>
						<path style="fill:#0C232B;" d="M338.662,328.664v0.011c-1.78,1.674-3.009,3.041-3.104,2.945
							c-0.106-0.106-0.297-2.034-0.466-4.111v-0.021l1.452-1.769l1.939,0.53L338.662,328.664z"/>
					</g>
				</g>
				<g>
					<path style="fill:#293B52;" d="M311.134,342.328L311.134,342.328c-0.448,0.332-1.08,0.238-1.413-0.21l-5.446-7.344
						c-0.332-0.448-0.238-1.08,0.21-1.412l0,0c0.448-0.332,1.08-0.238,1.413,0.21l5.446,7.344
						C311.676,341.364,311.582,341.996,311.134,342.328z"/>
					<path style="fill:#E28758;" d="M312.202,344.541c0,0-9.006-2.107-7.924-6.013c0,0-0.044-0.121,0.64-0.464
						c0,0-0.066-1.324,0.353-1.677s2.251,3.755,4.452,3.026c0,0-0.609-1.689-0.753-2.016c-0.145-0.327,0.495-0.639,1.169-0.086
						c0.673,0.553,2.307,1.635,3.785,4.217L312.202,344.541z"/>
					<path style="fill:#FFFFFF;" d="M311.407,345.833c0,0,24.836,14.82,29.326,12.862c4.491-1.958,12.172-25.252,12.172-25.252
						s-2.007-7.803-4.303-7.72c-6.037,0.22-9.975,13.314-12.516,21.919l-21.925-8.028L311.407,345.833z"/>
					<path style="fill:#D9F7FF;" d="M336.086,347.644c0,0,0.383,2.943,0.79,2.627C337.703,349.628,336.086,347.644,336.086,347.644z
						"/>
					<path style="fill:#D9F7FF;" d="M349.973,341.616l2.608-7.209C352.581,334.407,353.75,340.223,349.973,341.616z"/>
				</g>
			</g>
			<g>
				<g>
					<path style="fill:#E28758;" d="M344.185,306.551c-0.332-0.136-0.629-0.133-0.894-0.054c-0.361-0.907-0.799-1.755-1.224-2.519
						c-0.536-0.961-1.495-1.555-2.527-1.583c-2.536-0.07-7.302-0.301-9.799,2.786c-0.555,0.687-0.767,1.621-0.601,2.532
						c0.294,1.607,0.458,2.956,1.186,5.62c0.271,0.994,0.567,1.946,0.874,2.79c0.519,1.402,1.078,2.485,1.654,2.883
						c2.296,1.577,8.825-1.138,10.707-5.831c0.279-0.694,0.434-1.382,0.502-2.06C345.475,309.862,345.374,307.039,344.185,306.551z"
						/>
					<g>
						<path style="fill:#C26144;" d="M333.657,309.827c0.293,0.287,0.45,0.707,0.498,1.119c0.053,0.417,0.006,0.834-0.077,1.234
							c-0.046,0.202-0.109,0.392-0.118,0.545c-0.017,0.151,0.037,0.286,0.139,0.415c0.207,0.256,0.603,0.343,1.003,0.288
							c-0.332,0.215-0.858,0.267-1.228-0.059c-0.183-0.147-0.304-0.405-0.303-0.654c0.004-0.246,0.073-0.437,0.106-0.623
							c0.086-0.376,0.144-0.753,0.159-1.13C333.847,310.585,333.803,310.206,333.657,309.827z"/>
						<path style="fill:#523329;" d="M334.862,308.779c0.117-0.184,0.276-0.292,0.461-0.367c0.185-0.069,0.387-0.102,0.59-0.1
							c0.203-0.004,0.408,0.055,0.582,0.148c0.181,0.083,0.32,0.226,0.438,0.366c0.041,0.048,0.035,0.12-0.013,0.16
							c-0.036,0.03-0.085,0.035-0.125,0.015l-0.012-0.006c-0.147-0.074-0.287-0.14-0.43-0.172c-0.141-0.039-0.283-0.038-0.422-0.024
							c-0.283,0.024-0.525,0.201-0.836,0.258l-0.042,0.008c-0.102,0.018-0.199-0.049-0.217-0.15
							C334.828,308.865,334.838,308.817,334.862,308.779z"/>
						<path style="fill:#523329;" d="M332.697,309.678c-0.299,0.102-0.596,0.065-0.855,0.182c-0.128,0.055-0.252,0.124-0.357,0.226
							c-0.11,0.098-0.2,0.223-0.292,0.36l-0.008,0.011c-0.035,0.052-0.106,0.066-0.158,0.031c-0.039-0.026-0.056-0.073-0.048-0.116
							c0.036-0.18,0.087-0.372,0.205-0.533c0.108-0.166,0.257-0.317,0.437-0.412c0.176-0.1,0.369-0.17,0.564-0.2
							c0.198-0.024,0.39-0.008,0.581,0.097c0.091,0.049,0.124,0.163,0.075,0.254c-0.023,0.043-0.061,0.073-0.104,0.087
							L332.697,309.678z"/>
						<path style="fill:#C26144;" d="M334.999,314.762c0.489-0.14,0.93-0.278,1.248-0.549c0.162-0.129,0.289-0.294,0.382-0.494
							c0.105-0.197,0.158-0.425,0.243-0.673c0.086,0.24,0.125,0.509,0.061,0.775c-0.046,0.27-0.207,0.526-0.422,0.707
							c-0.219,0.178-0.482,0.285-0.744,0.319C335.504,314.881,335.239,314.862,334.999,314.762z"/>
						<path style="fill:#523329;" d="M336.276,310.754c0.116,0.445-0.006,0.862-0.272,0.931c-0.266,0.069-0.574-0.236-0.69-0.681
							c-0.116-0.445,0.006-0.862,0.272-0.931C335.852,310.004,336.16,310.309,336.276,310.754z"/>
						<path style="fill:#523329;" d="M332.86,311.641c0.116,0.445-0.006,0.862-0.272,0.931c-0.266,0.069-0.575-0.236-0.69-0.681
							c-0.115-0.445,0.006-0.862,0.272-0.931C332.436,310.891,332.745,311.196,332.86,311.641z"/>
						<path style="fill:#C26144;" d="M344.639,308.06c-0.147-0.162-0.362-0.203-0.549-0.175c-0.19,0.025-0.349,0.135-0.486,0.269
							c-0.263,0.281-0.464,0.656-0.611,1.025c-0.036,0.092-0.14,0.137-0.232,0.1c-0.085-0.034-0.129-0.126-0.107-0.212
							c0.082-0.32,0.342-0.521,0.59-0.637c0.127-0.059,0.263-0.099,0.416-0.108c0.15-0.01,0.329,0.029,0.455,0.145
							c0.248,0.23,0.265,0.579,0.134,0.831c-0.134,0.25-0.368,0.397-0.604,0.476c0.196-0.153,0.37-0.336,0.431-0.548
							c0.064-0.198-0.008-0.436-0.147-0.528c-0.127-0.095-0.341-0.048-0.535,0.049c-0.193,0.093-0.345,0.245-0.394,0.412
							l-0.339-0.112c0.175-0.412,0.403-0.799,0.766-1.096c0.18-0.145,0.418-0.248,0.658-0.233
							C344.316,307.73,344.555,307.854,344.639,308.06z"/>
					</g>
					<path style="fill:#523329;" d="M343.615,306.443c-1.885,0.25-2.544,3.774-2.544,3.774c-0.524-0.1-0.955-0.459-1.325-0.844
						c-0.883-0.919-1.804-1.927-1.994-3.188c-1.153,1.124-2.864,1.506-4.467,1.66c-1.398,0.134-2.849,0.103-4.148-0.432l0.59,3.492
						c-0.807-0.254-1.616-0.612-2.27-1.148c-0.655-0.536-1.174-1.262-1.365-2.086c-0.065-0.281-0.028-0.67,0.254-0.733
						c-0.582-0.789-0.937-1.765-0.891-2.745c0.046-0.98,0.521-1.953,1.328-2.511c0.806-0.558,1.941-0.647,2.779-0.136
						c-0.146-0.866,0.318-1.723,1.008-2.266c0.69-0.543,1.627-0.727,2.492-0.572c0.864,0.155,1.654,0.627,2.27,1.253
						c1.636-0.602,3.461-0.579,5.091,0.037c0.695,0.263,1.366,0.645,1.83,1.225c0.306,0.383,0.725,0.886,0.825,1.238
						C343.35,303.418,343.615,306.443,343.615,306.443z"/>
				</g>
			</g>
		</g>
	</g>
</g>
</svg>
